<svg width="55" height="54" viewBox="0 0 55 54" fill="none" xmlns="http://www.w3.org/2000/svg">
<path d="M45.954 42.5505L25.0908 53.1546C24.4628 53.4729 23.7022 53.4641 23.1008 53.0926C13.4873 47.1052 3.95337 33.2465 0.0708033 17.7959C-0.221038 16.6549 0.415739 15.4787 1.49468 15.1338C0.663343 15.629 0.256558 16.6638 0.574921 17.6279C5.36844 32.3798 15.7425 45.2833 25.7452 50.5367C26.3732 50.8728 27.1249 50.8374 27.744 50.4925L46.9622 39.6761C47.4044 40.6932 47.0418 42.0022 45.954 42.5505Z" fill="black"/>
<path d="M34.7663 22.3593C32.0777 18.4591 29.8048 14.037 27.9033 9.14624C27.4965 8.09382 26.3644 7.5278 25.2854 7.85503L1.98126 14.9038C1.80436 14.9568 1.64518 15.0276 1.49486 15.1337C0.663466 15.629 0.256681 16.6637 0.575043 17.6278C5.36856 32.3797 15.7427 45.2832 25.7453 50.5366C26.3733 50.8727 27.125 50.8373 27.7441 50.4924L46.9623 39.6761" stroke="black" stroke-width="0.75" stroke-miterlimit="10" stroke-linecap="round" stroke-linejoin="round"/>
<path d="M46.9629 39.6762L48.0773 39.0482C49.4923 38.2523 49.5366 36.2447 48.1657 35.3868C46.8832 34.589 45.6506 33.7267 44.4668 32.8018" stroke="black" stroke-width="0.75" stroke-miterlimit="10" stroke-linecap="round" stroke-linejoin="round"/>
<path d="M10.8066 28.8077C11.0964 29.0715 11.5521 29.0018 11.923 28.8752C13.3806 28.3777 14.5721 27.2641 15.3951 25.9622C16.2181 24.6603 16.7034 23.174 17.0744 21.6791C17.3815 20.4418 17.605 19.0845 17.0589 17.9326C16.918 17.6353 16.6939 17.3375 16.37 17.2797C15.8047 17.1788 15.4185 17.8243 15.2286 18.3662C14.6693 19.9624 14.2598 21.6807 14.5995 23.3376C14.9392 24.9944 16.2029 26.5588 17.8798 26.7795C19.1846 26.9512 20.5599 26.2236 21.1522 25.0484C21.7082 23.9452 21.6107 22.5586 22.3392 21.5608C22.8862 22.2097 23.7779 22.5494 24.618 22.4289C25.4581 22.3085 26.2184 21.7319 26.5611 20.9555" stroke="black" stroke-width="0.75" stroke-miterlimit="10" stroke-linecap="round" stroke-linejoin="round"/>
<path d="M19.3477 37.1258C22.5109 34.613 25.9659 32.4682 29.6192 30.7439" stroke="black" stroke-width="0.75" stroke-miterlimit="10" stroke-linecap="round" stroke-linejoin="round"/>
<path d="M25.8574 40.7425C28.3998 38.8695 31.0567 37.152 33.8081 35.6022" stroke="black" stroke-width="0.75" stroke-miterlimit="10" stroke-linecap="round" stroke-linejoin="round"/>
<path d="M36.5824 27.3972C36.5117 27.4768 36.4409 27.5564 36.3701 27.636C35.7068 28.3701 34.9905 29.0245 34.2299 29.5817C33.9999 29.7497 33.7612 29.9178 33.5931 30.1743C33.1686 30.7757 33.2836 31.5893 33.372 32.2791C33.5046 33.2254 33.2747 34.4901 33.6727 35.3481V35.3658C33.9469 35.9229 34.5217 35.7814 35.1231 35.4453C34.3979 35.9406 33.6196 36.2944 33.2924 35.6045C32.8855 34.7467 33.1155 33.4731 32.9917 32.5268C32.8944 31.837 32.7794 31.0233 33.204 30.4219C33.3809 30.1654 33.6108 29.9974 33.8407 29.8293C34.7252 29.1749 35.5654 28.3877 36.3171 27.5122C36.3701 27.4591 36.4232 27.3972 36.4763 27.3353L36.5824 27.3972Z" fill="black"/>
<path d="M37.2921 34.0215C37.0444 34.2072 36.7614 34.3487 36.4961 34.4814C36.6376 34.3841 36.7526 34.3045 36.841 34.2603C36.9914 34.1895 37.1417 34.1099 37.2921 34.0215Z" fill="black"/>
<path d="M36.3712 27.6361C36.4419 27.5565 36.5127 27.4769 36.5834 27.3973C36.6896 27.2912 36.778 27.1939 36.8664 27.0878C37.1141 26.7871 37.6713 26.9109 38.025 27.079C38.3523 27.2381 38.6972 27.4062 38.9183 27.6892C39.051 27.8572 38.9802 28.0606 38.9271 28.264C38.8652 28.5382 38.8033 28.8213 38.7503 29.0954C38.6441 29.6703 38.5645 30.254 38.5115 30.8289C38.4849 31.218 38.4584 31.616 38.4496 32.0051C38.4496 32.297 38.4496 32.6065 38.3523 32.8984C38.1842 33.4113 37.7774 33.7386 37.344 33.9862C37.3263 34.0039 37.3087 34.0127 37.2909 34.0216C37.1406 34.11 36.9902 34.1896 36.8399 34.2604C36.7515 34.3046 36.6365 34.3842 36.495 34.4814C36.4861 34.4992 36.4685 34.508 36.4508 34.508C36.1412 34.7468 35.7256 35.074 35.3099 35.3305C35.248 35.3747 35.1861 35.4101 35.1242 35.4454C34.5228 35.7815 33.9479 35.923 33.6737 35.3659V35.357V35.3482C33.2757 34.4903 33.5057 33.2256 33.373 32.2793C33.2846 31.5895 33.1696 30.7758 33.5941 30.1744C33.7622 29.9179 34.001 29.7499 34.2309 29.5818C34.9915 29.0246 35.7079 28.3702 36.3712 27.6361Z" stroke="black" stroke-width="0.75" stroke-miterlimit="10" stroke-linecap="round" stroke-linejoin="round"/>
<path d="M34.0195 35.2068C34.2672 34.4904 34.5413 33.8006 34.8509 33.1285C34.8774 33.0754 34.904 33.0223 34.9305 32.9693C35.1604 32.4563 35.4169 31.9698 35.6999 31.5011C35.7176 31.4746 35.7264 31.4569 35.7353 31.4392C35.9564 31.0766 36.1952 30.7229 36.4428 30.3779" stroke="black" stroke-width="0.75" stroke-miterlimit="10" stroke-linecap="round" stroke-linejoin="round"/>
<path d="M30.85 2.19409C30.5452 2.98748 30.2404 3.78086 29.9355 4.57424" stroke="black" stroke-width="0.75" stroke-miterlimit="10" stroke-linecap="round" stroke-linejoin="round"/>
<path d="M33.7834 3.31641C32.9605 4.12601 32.0865 4.88216 31.1699 5.57754" stroke="black" stroke-width="0.75" stroke-miterlimit="10" stroke-linecap="round" stroke-linejoin="round"/>
<path d="M35.0199 6.43115C34.071 6.59306 33.0436 6.75909 31.9297 6.94835" stroke="black" stroke-width="0.75" stroke-miterlimit="10" stroke-linecap="round" stroke-linejoin="round"/>
<path d="M47.5671 17.2404C47.0401 18.2878 46.4923 19.3245 45.9221 20.3486C44.4805 22.9487 42.8444 25.4162 40.8633 27.6185" stroke="black" stroke-width="0.75" stroke-miterlimit="10" stroke-linecap="round" stroke-linejoin="round"/>
<path d="M44.9238 8.14654C45.4247 7.3599 45.9354 6.58068 46.4535 5.80893C47.0992 4.85373 47.7536 3.9074 48.4258 2.96993C49.3102 1.74061 50.8314 -0.461564 52.6356 0.705852C54.5459 1.94403 52.6621 5.13677 52.1138 6.64026C51.5173 8.28564 50.8784 9.91504 50.201 11.5244" stroke="black" stroke-width="0.75" stroke-miterlimit="10" stroke-linecap="round" stroke-linejoin="round"/>
<path d="M37.1758 23.9305C37.1846 23.9128 37.1934 23.8862 37.2023 23.8597C37.8479 21.9317 38.4935 20.0391 39.3691 18.173C39.9734 16.8882 40.6156 15.615 41.2874 14.3586" stroke="black" stroke-width="0.75" stroke-miterlimit="10" stroke-linecap="round" stroke-linejoin="round"/>
<path d="M36.3706 27.6362C36.3441 27.6008 36.3264 27.5566 36.3175 27.5124C36.0257 26.6899 36.574 25.4429 36.857 24.7354C37.0781 24.1516 37.3169 23.5679 37.5734 23.0019C37.8299 22.4093 37.9979 21.3215 38.6966 21.0916C40.032 20.6494 42.6145 21.9495 43.2513 23.1346C43.4901 23.5679 43.5078 24.0632 43.1098 24.5673C42.1723 25.7436 41.3233 26.9994 40.4389 28.2111C39.9259 28.9098 39.3422 29.1486 38.7497 29.0955" stroke="black" stroke-width="0.75" stroke-miterlimit="10" stroke-linecap="round" stroke-linejoin="round"/>
<path d="M45.7357 12.5496C45.7506 12.4659 45.7556 12.3901 45.7523 12.3049C45.7557 12.2467 45.7604 12.194 45.7512 12.133C45.7621 11.8895 45.7536 11.639 45.7269 11.3869C45.7311 11.3802 45.7298 11.3747 45.7298 11.3747C45.7263 11.3124 45.7171 11.2514 45.7024 11.1917C45.6743 10.9341 45.6324 10.6683 45.5793 10.405C45.4873 9.98414 45.3729 9.56844 45.2263 9.16583C45.1422 8.92106 45.0427 8.68555 44.9376 8.45134C44.8229 8.20209 44.7039 7.95958 44.5708 7.73175C44.52 7.64575 44.4706 7.56526 44.4211 7.48471C44.2728 7.24314 44.1024 6.98364 43.9007 6.76569C43.8593 6.7178 43.8179 6.66986 43.7666 6.62989C43.6436 6.51454 43.5034 6.42601 43.3449 6.35886C43.2907 6.33105 43.2406 6.31956 43.196 6.30674C42.9594 6.23449 42.705 6.25813 42.4668 6.32389C42.3506 6.35613 42.2328 6.40598 42.1288 6.46407C41.9659 6.54714 41.8308 6.64679 41.6915 6.75318C41.6675 6.77584 41.6336 6.80653 41.6096 6.82919C41.122 7.25024 40.7584 7.8381 40.728 8.48188C40.7219 8.5292 40.7337 8.6011 40.7951 8.61006L40.7908 8.61675" stroke="black" stroke-width="0.75" stroke-miterlimit="10" stroke-linecap="round" stroke-linejoin="round"/>
<path d="M45.5368 12.6754L45.4014 12.5342L45.266 12.3929L44.9001 11.9887L44.1419 11.169L43.6834 10.6768L43.3105 10.2684C43.4475 10.3921 43.5776 10.5116 43.7089 10.6366C43.8943 10.8124 44.0796 10.9881 44.255 11.1719C44.4914 11.4106 44.7178 11.6573 44.9401 11.9107C45.0629 12.0491 45.1815 12.1942 45.2945 12.3405L45.4268 12.5169C45.4639 12.5716 45.5053 12.6195 45.5368 12.6754Z" fill="white" stroke="black" stroke-width="0.75" stroke-miterlimit="10" stroke-linecap="round" stroke-linejoin="round"/>
<path d="M45.5651 12.7078C45.5651 12.7078 45.5651 12.7078 45.5612 12.7107L45.5371 12.6788L45.5651 12.7078Z" fill="white" stroke="black" stroke-width="0.75" stroke-miterlimit="10" stroke-linecap="round" stroke-linejoin="round"/>
<path d="M42.6085 9.64845C42.4368 9.504 42.2609 9.36624 42.0834 9.2461C42.0057 9.19496 41.928 9.14382 41.8517 9.09809C41.7033 8.99999 41.5464 8.91527 41.3894 8.83061C41.3214 8.79446 41.2461 8.77721 41.1837 8.73982L41.1781 8.7411C41.0473 8.69059 40.9248 8.64964 40.7925 8.61674C40.7285 8.59691 40.6394 8.57131 40.5572 8.54989C40.5489 8.54031 40.5446 8.54701 40.5321 8.54418C40.5321 8.54418 40.5238 8.53455 40.5182 8.53583C40.4876 8.53135 40.4582 8.53233 40.4289 8.53326C40.3241 8.53995 40.2356 8.58882 40.1594 8.6636C40.1186 8.69012 40.0917 8.72493 40.0579 8.75558C39.9364 8.88659 39.8163 9.02296 39.7017 9.15814C38.9092 10.1651 38.5227 11.4754 38.533 12.7639C38.5355 12.7978 38.535 12.8438 38.5374 12.8777C38.5373 13.0212 38.526 13.1672 38.5342 13.3202C38.5442 13.4327 38.5641 13.5372 38.6261 13.6206C38.7073 13.734 38.8239 13.7992 38.9587 13.8661C39.0449 13.9038 39.1212 13.9495 39.2061 13.9818C39.2213 13.9955 39.2408 14.0025 39.2603 14.0095C39.2728 14.0124 39.2992 14.0237 39.3104 14.0211C39.3576 14.0447 39.398 14.0642 39.4425 14.077C39.5036 14.109 39.569 14.1342 39.6413 14.1636C39.6803 14.1777 39.7262 14.1959 39.7651 14.21C39.9418 14.2787 40.1157 14.3366 40.3009 14.3919C40.4109 14.4299 40.5208 14.468 40.6379 14.4872C40.7521 14.5185 40.8719 14.5486 40.9946 14.5665C41.0475 14.5888 41.1019 14.5936 41.152 14.6052C41.2622 14.6202 41.3737 14.6407 41.4951 14.6532C41.6429 14.6768 41.7936 14.6883 41.9512 14.704C42.1006 14.7101 42.2612 14.7137 42.4036 14.7156C42.6173 14.7185 42.8437 14.7013 43.0631 14.6799L43.0968 14.6723C43.2085 14.6697 43.305 14.6535 43.4114 14.6292C43.5317 14.6133 43.6605 14.5839 43.7794 14.5625L43.9181 14.5251C43.925 14.5293 43.9349 14.5213 43.9418 14.5255C43.9474 14.5242 43.9474 14.5242 43.953 14.5229C44.2234 14.444 44.4924 14.3597 44.7379 14.2521C44.7702 14.239 44.808 14.2246 44.8446 14.2048C44.9022 14.1745 44.9611 14.1496 45.0144 14.1259" stroke="black" stroke-width="0.75" stroke-miterlimit="10" stroke-linecap="round" stroke-linejoin="round"/>
<path d="M45.0432 13.6716C45.03 13.7378 45.0124 13.8106 45.0104 13.8742C45.013 13.8851 45.0101 13.8972 45.0114 13.9026C45.0029 13.9161 45.0086 13.9148 45.0126 13.9311C45.0054 13.9499 45.0022 13.9851 45.0103 14.0177C45.0074 14.0298 45.0114 14.0461 45.0084 14.0582C45.0098 14.0636 45.0055 14.0704 45.0125 14.0746C45.0095 14.0867 45.0122 14.0975 45.0135 14.103C45.0149 14.1084 45.0149 14.1084 45.0149 14.1084L45.0162 14.1139C45.0176 14.1193 45.0176 14.1193 45.0176 14.1193L45.012 14.1205L45.0133 14.126C44.96 14.1496 44.9011 14.1745 44.8436 14.2049C44.807 14.2247 44.7691 14.2391 44.7369 14.2521C44.4914 14.3598 44.2223 14.4441 43.952 14.523C43.9464 14.5242 43.9464 14.5242 43.9408 14.5255C43.9338 14.5214 43.924 14.5293 43.917 14.5252L43.7784 14.5625C43.6595 14.5839 43.5307 14.6133 43.4104 14.6293C43.304 14.6535 43.2075 14.6698 43.0958 14.6723L43.0621 14.68C42.8426 14.7014 42.6162 14.7186 42.4026 14.7156C42.2601 14.7137 42.0996 14.7102 41.9502 14.7041C41.7926 14.6884 41.6418 14.6768 41.494 14.6532C41.3727 14.6407 41.2611 14.6202 41.151 14.6052C41.1009 14.5937 41.0464 14.5889 40.9936 14.5665C40.8709 14.5486 40.7511 14.5185 40.6369 14.4872C40.5198 14.468 40.4098 14.43 40.2999 14.3919C40.1147 14.3366 39.9408 14.2788 39.7641 14.21C39.7251 14.1959 39.6792 14.1778 39.6403 14.1637C39.5693 14.1397 39.5039 14.1144 39.4385 14.0892C39.3788 14.0627 39.319 14.0361 39.2592 14.0096C39.2398 14.0026 39.2202 13.9955 39.2051 13.9818C39.1202 13.9495 39.0439 13.9038 38.9577 13.866C38.8229 13.7993 38.7062 13.7341 38.625 13.6206C38.5631 13.5372 38.5432 13.4327 38.5332 13.3203C38.7314 13.0685 38.9843 12.919 39.3541 12.8117C39.6693 12.7226 39.9949 12.7 40.3129 12.7423C40.398 12.7516 40.4844 12.7662 40.5652 12.7823C40.6042 12.7963 40.6474 12.8037 40.685 12.8123C41.1557 12.946 41.5929 13.2077 42.0476 13.3966C42.0546 13.4008 42.0546 13.4008 42.0546 13.4008C42.0809 13.412 42.1061 13.4177 42.1269 13.4302C42.1602 13.4455 42.1978 13.4542 42.2312 13.4695C42.739 13.6578 43.2829 13.7288 43.8246 13.743C43.8302 13.7417 43.8428 13.7446 43.854 13.742C44.0647 13.7571 44.2772 13.7315 44.4954 13.7048C44.6016 13.7035 44.6938 13.6939 44.8029 13.6806L44.8085 13.6793C44.881 13.6856 44.9608 13.6732 45.0432 13.6716Z" fill="black"/>
<path d="M52.9394 14.9636C52.9463 14.9678 52.9546 14.9774 52.9658 14.9748C52.9978 14.9847 53.0386 14.9582 53.0764 14.9439C53.6324 14.5359 53.9201 13.8564 53.9887 13.1751C53.9986 13.0237 54.0056 12.8844 53.9932 12.7381C53.9807 12.5917 53.9627 12.4467 53.9196 12.2959C53.8331 12.0172 53.657 11.759 53.4019 11.5877C53.1771 11.4439 52.9279 11.3687 52.667 11.3422C52.3978 11.306 52.1212 11.3117 51.8642 11.3245C50.6725 11.361 49.4067 11.6726 48.2826 12.1986C48.1085 12.2843 47.94 12.3686 47.7743 12.4637C47.5453 12.5906 47.326 12.7324 47.1192 12.8771C47.1093 12.8851 47.0939 12.8943 47.084 12.9024" stroke="black" stroke-width="0.75" stroke-miterlimit="10" stroke-linecap="round" stroke-linejoin="round"/>
<path d="M50.2317 13.8141L48.6633 13.5464L47.8115 13.4021L47.127 13.2886C47.367 13.3026 47.6015 13.318 47.8386 13.3443C48.0883 13.3734 48.3393 13.4079 48.5874 13.4547C49.1423 13.5461 49.6885 13.674 50.2317 13.8141Z" fill="white" stroke="black" stroke-width="0.75" stroke-miterlimit="10" stroke-linecap="round" stroke-linejoin="round"/>
<path d="M51.6746 14.225C51.8136 14.2851 51.9471 14.3465 52.0805 14.4078C52.2014 14.4663 52.3167 14.5261 52.4277 14.5926C52.6081 14.7006 52.7758 14.8287 52.9379 14.9582L52.9392 14.9636C52.9461 14.9678 52.9544 14.9774 52.9656 14.9748C53.007 15.0227 53.0666 15.0723 53.1178 15.1122C53.2978 15.2663 53.2625 15.4349 53.2212 15.651C53.1859 15.8196 53.1338 15.9921 53.0804 16.1593C52.8827 16.7724 52.5655 17.3324 52.1609 17.8264C51.7321 18.3659 51.2021 18.831 50.6118 19.1952C50.5105 19.2642 50.3837 19.3734 50.2545 19.4488C50.1913 19.4804 50.1267 19.5066 50.0595 19.5219C50.0204 19.5309 49.9854 19.5331 49.9505 19.5353C49.8918 19.5372 49.8222 19.5187 49.7624 19.4922C49.7429 19.4851 49.7221 19.4727 49.7026 19.4657C49.6567 19.4474 49.6082 19.4183 49.5609 19.3947C48.5266 18.7986 47.5951 17.9955 46.9434 17.008C46.7302 16.6952 46.5439 16.3476 46.3967 15.991C46.233 15.6152 46.1112 15.2413 46.0371 14.8451" stroke="black" stroke-width="0.75" stroke-miterlimit="10" stroke-linecap="round" stroke-linejoin="round"/>
<path d="M50.2718 18.6585C50.3428 18.9465 50.3375 19.1887 50.2524 19.4433C50.1906 19.4803 50.1261 19.5066 50.0589 19.5219C50.0197 19.5308 49.9848 19.533 49.9498 19.5352C49.8911 19.5371 49.8215 19.5186 49.7617 19.4921C49.7422 19.4851 49.7214 19.4726 49.7019 19.4655C49.6561 19.4473 49.6075 19.4182 49.5602 19.3946C48.526 18.7985 47.5944 17.9954 46.9427 17.008C46.7295 16.6952 46.5432 16.3475 46.3961 15.9909C46.2324 15.6151 46.1105 15.2412 46.0365 14.845L46.0352 14.8396C46.2047 14.7837 46.3692 14.6831 46.5242 14.5444C46.6435 14.764 46.7626 14.9835 46.8973 15.1937C46.9139 15.2129 46.9345 15.2484 46.9454 15.2689C47.2647 15.7239 47.6264 16.1349 48.0782 16.4564C48.562 16.8108 49.1363 17.0528 49.579 17.4567C49.8735 17.7396 50.0974 18.0959 50.2233 18.486C50.245 18.5499 50.2653 18.6084 50.2718 18.6585Z" fill="black"/>
<path d="M46.5972 12.3476C46.5847 12.3447 46.5778 12.3405 46.5666 12.3431C46.554 12.3402 46.5527 12.3347 46.5415 12.3373C46.522 12.3303 46.4969 12.3245 46.4801 12.3284C46.4537 12.3172 46.4356 12.3156 46.4132 12.3207C46.3937 12.3137 46.37 12.3133 46.3531 12.3172C46.3238 12.3181 46.2945 12.319 46.2553 12.328C46.2259 12.329 46.198 12.3354 46.1644 12.343C46.1363 12.3494 46.114 12.3545 46.0873 12.3663C46.0887 12.3717 46.0774 12.3743 46.0719 12.3756C46.0662 12.3769 46.062 12.3836 46.0564 12.3849C46.0452 12.3874 46.0326 12.3845 46.0228 12.3925C45.9962 12.4043 45.9695 12.4162 45.9428 12.428C45.9441 12.4334 45.9385 12.4347 45.9343 12.4414C45.9175 12.4452 45.9076 12.4532 45.8965 12.4558C45.8852 12.4583 45.8754 12.4663 45.8642 12.4688C45.853 12.4714 45.8474 12.4727 45.8444 12.4848C45.8389 12.4861 45.829 12.4941 45.8234 12.4954C45.8192 12.5021 45.8192 12.5021 45.8192 12.5021C45.8023 12.5059 45.7883 12.5206 45.7797 12.534C45.7643 12.5433 45.753 12.5458 45.7376 12.5551C45.6784 12.603 45.6236 12.6442 45.5684 12.7084L45.5628 12.7097C45.5628 12.7097 45.5628 12.7097 45.5572 12.711C45.5007 12.7698 45.4358 12.842 45.3847 12.9224C45.3508 12.9531 45.3239 12.9879 45.2984 13.0282C45.2755 13.0794 45.2499 13.1196 45.23 13.1586L45.2244 13.1599C45.2159 13.1732 45.2073 13.1867 45.2057 13.2042C45.1972 13.2176 45.1901 13.2365 45.1828 13.2554C45.1659 13.2822 45.1515 13.3199 45.14 13.3455C45.11 13.4154 45.0911 13.4828 45.0709 13.5449C45.0595 13.5704 45.0635 13.5867 45.0507 13.6068C45.0505 13.6298 45.0502 13.6528 45.0431 13.6717C45.0298 13.7378 45.0123 13.8106 45.0102 13.8742C45.0129 13.8851 45.01 13.8973 45.0113 13.9027C45.0028 13.9161 45.0084 13.9148 45.0124 13.9311C45.0053 13.9499 45.0021 13.9851 45.0101 14.0177C45.0072 14.0299 45.0113 14.0461 45.0083 14.0583C45.0097 14.0637 45.0097 14.0637 45.0054 14.0704L45.0123 14.0746C45.0094 14.0867 45.0121 14.0976 45.0134 14.103C45.0148 14.1085 45.0148 14.1085 45.0148 14.1085L45.0161 14.1139C45.0174 14.1193 45.0174 14.1193 45.0174 14.1193L45.0119 14.1206L45.0132 14.126L45.0188 14.1247C45.0186 14.1477 45.0226 14.164 45.0266 14.1803C45.0223 14.187 45.0237 14.1925 45.0306 14.1966C45.0342 14.2589 45.0502 14.3241 45.0692 14.3772C45.0762 14.3813 45.0762 14.3813 45.0762 14.3813C45.0802 14.3976 45.0842 14.4139 45.0951 14.4344C45.1115 14.4766 45.1278 14.5187 45.154 14.5529C45.1842 14.6034 45.2269 14.6568 45.2726 14.698C45.2809 14.7076 45.2961 14.7213 45.31 14.7296C45.2961 14.7213 45.278 14.7197 45.2641 14.7114L45.2628 14.706C45.2433 14.699 45.2238 14.6919 45.2099 14.6836C45.021 14.589 44.897 14.4222 44.8434 14.2049C44.7933 14.0499 44.791 13.8726 44.8027 13.6806C44.8286 13.4739 44.8937 13.2582 45.005 13.0377C45.1173 12.8457 45.2518 12.6716 45.4013 12.5342C45.4111 12.5263 45.414 12.5142 45.4266 12.517C45.528 12.425 45.6406 12.3535 45.7527 12.3049C45.8061 12.2813 45.8538 12.2589 45.9042 12.2475C45.9588 12.2292 46.0149 12.2165 46.0708 12.2037C46.2204 12.1868 46.3626 12.2117 46.4987 12.284C46.5391 12.3034 46.5682 12.3255 46.5972 12.3476Z" fill="black"/>
<path d="M45.0153 14.1084C45.0153 14.1084 45.0153 14.1084 45.0195 14.1017C45.0168 14.0909 45.0155 14.0854 45.0128 14.0745L45.0059 14.0704C45.0101 14.0637 45.0101 14.0637 45.0088 14.0583C45.0117 14.0461 45.0077 14.0298 45.0106 14.0177C45.0026 13.9851 45.0058 13.95 45.0129 13.9311C45.0089 13.9148 45.0033 13.9161 45.0118 13.9026C45.0105 13.8972 45.0134 13.8851 45.0107 13.8742C45.0128 13.8107 45.0303 13.7378 45.0436 13.6717C45.0507 13.6528 45.051 13.6298 45.0512 13.6068C45.064 13.5867 45.0599 13.5704 45.0714 13.5448C45.0916 13.4828 45.1105 13.4154 45.1405 13.3454C45.152 13.3199 45.1663 13.2822 45.1833 13.2553C45.1905 13.2365 45.1977 13.2177 45.2062 13.2042C45.2147 13.1908 45.2232 13.1774 45.2304 13.1585C45.2504 13.1195 45.276 13.0793 45.2988 13.0282C45.3244 12.9879 45.3513 12.9531 45.3851 12.9225C45.4362 12.8419 45.5012 12.7697 45.5577 12.711C45.5633 12.7097 45.5633 12.7097 45.5633 12.7097L45.5689 12.7084C45.624 12.6442 45.6789 12.603 45.7381 12.5551C45.7535 12.5458 45.7647 12.5432 45.7802 12.534C45.7887 12.5206 45.8028 12.5059 45.8196 12.502C45.8196 12.502 45.8196 12.502 45.8239 12.4953C45.8295 12.494 45.8394 12.4861 45.845 12.4848C45.8436 12.4794 45.8548 12.4768 45.8716 12.473C45.8759 12.4663 45.887 12.4637 45.8969 12.4557C45.9081 12.4532 45.918 12.4452 45.9348 12.4414C45.9391 12.4347 45.9446 12.4334 45.9433 12.4279C45.97 12.4161 45.9966 12.4043 46.0233 12.3925C46.0331 12.3845 46.0457 12.3874 46.0569 12.3848C46.0625 12.3835 46.0667 12.3768 46.0723 12.3756C46.099 12.3638 46.1313 12.3506 46.1648 12.343C46.1985 12.3353 46.2264 12.3289 46.2558 12.328C46.295 12.3191 46.3243 12.3181 46.3537 12.3172C46.3705 12.3133 46.3942 12.3136 46.4137 12.3207C46.4361 12.3156 46.4542 12.3172 46.4806 12.3283C46.4974 12.3245 46.5225 12.3303 46.542 12.3373C46.5532 12.3348 46.5545 12.3402 46.5671 12.3431C46.5783 12.3405 46.5852 12.3447 46.5977 12.3475L46.5991 12.353C46.5991 12.353 46.5991 12.353 46.6033 12.3462C46.638 12.3671 46.6813 12.3744 46.7117 12.4019C46.8868 12.4882 47.0094 12.6496 47.0715 12.8534C47.0755 12.8697 47.0782 12.8806 47.0822 12.8969L47.0836 12.9023C47.0956 12.9512 47.105 12.9892 47.1115 13.0394C47.1247 13.1167 47.128 13.202 47.1256 13.2886C47.1134 13.5266 47.0393 13.8017 46.911 14.049C46.7987 14.241 46.6712 14.4193 46.5246 14.5445C46.3695 14.6831 46.2051 14.7838 46.0355 14.8396C46.0076 14.846 45.9809 14.8579 45.9571 14.8575C45.7667 14.901 45.5811 14.8917 45.4228 14.8015C45.3825 14.782 45.3422 14.7626 45.3174 14.7338L45.3118 14.7351L45.3105 14.7296C45.2966 14.7213 45.2814 14.7075 45.2731 14.698C45.2274 14.6568 45.1847 14.6034 45.1545 14.5529C45.1283 14.5187 45.112 14.4765 45.0957 14.4344C45.086 14.4193 45.0764 14.4043 45.0724 14.388C45.0767 14.3813 45.0767 14.3813 45.0767 14.3813C45.0767 14.3813 45.0767 14.3813 45.0697 14.3771C45.0507 14.3241 45.0346 14.2589 45.0311 14.1966C45.0241 14.1925 45.0228 14.187 45.0271 14.1803C45.0231 14.164 45.019 14.1477 45.0193 14.1247L45.0137 14.126L45.0123 14.1206L45.018 14.1193C45.018 14.1193 45.018 14.1193 45.0166 14.1139L45.0153 14.1084Z" stroke="black" stroke-width="0.75" stroke-miterlimit="10" stroke-linecap="round" stroke-linejoin="round"/>
</svg>
