<svg width="57" height="57" viewBox="0 0 57 57" fill="none" xmlns="http://www.w3.org/2000/svg">
<path d="M55.5745 37.5651C54.9952 39.2066 52.248 41.3631 48.5774 42.8967C44.0057 44.8027 39.7356 45.0173 39.0366 43.3741C38.6739 42.525 39.3473 41.3446 40.7159 40.136C39.5953 41.1871 39.0641 42.1711 39.3651 42.8868C40.0153 44.408 44.2414 44.0993 48.8131 42.1932C52.0644 40.8382 54.61 39.0379 55.5745 37.5651Z" fill="#030303"/>
<path d="M52.0645 35.0972C54.0868 34.8497 55.5575 35.1303 55.9174 35.98C56.1033 36.4204 55.9728 36.9576 55.5837 37.5485C55.5838 37.5565 55.5798 37.5608 55.5757 37.565C54.6112 39.0378 52.0656 40.8382 48.8144 42.1932C44.2427 44.0992 40.0165 44.408 39.3664 42.8868C39.0653 42.1711 39.5965 41.187 40.7171 40.136C40.7951 40.0637 40.8815 39.9909 40.972 39.9138" stroke="black" stroke-width="0.75" stroke-miterlimit="10" stroke-linecap="round" stroke-linejoin="round"/>
<path d="M40.9707 39.9136C41.2829 39.6321 41.6454 39.348 42.0415 39.0702C42.3671 38.8392 42.717 38.6088 43.0888 38.3812" fill="white"/>
<path d="M40.9707 39.9136C41.2829 39.6321 41.6454 39.348 42.0415 39.0702C42.3671 38.8392 42.717 38.6088 43.0888 38.3812" stroke="black" stroke-width="0.75" stroke-miterlimit="10" stroke-linecap="round" stroke-linejoin="round"/>
<path d="M39.3965 0.755493C41.4078 3.59281 43.2395 6.56482 44.8826 9.62665C45.3136 10.4078 45.7266 11.2069 45.996 12.0599C46.5077 13.6312 46.3551 15.3641 45.9062 16.9624C45.3315 19.0545 44.0296 20.8233 43.8859 23.0052C43.7512 25.0164 44.263 27.0007 44.9095 28.8684C45.538 30.709 46.3551 32.3881 47.3069 34.0761C48.2856 35.7911 49.1565 37.2726 50.9702 38.3321" stroke="black" stroke-width="0.75" stroke-miterlimit="10" stroke-linecap="round" stroke-linejoin="round"/>
<path d="M26.2344 6.03516C26.7282 9.49203 27.4196 12.913 28.3264 16.2801C28.5599 17.142 28.8113 18.004 29.1974 18.8121C30.643 21.8559 33.8485 22.9155 36.8205 24.1186C39.55 25.223 41.0226 27.8718 42.1988 30.341C43.0428 32.0918 43.6444 33.8607 44.1472 35.7283C44.659 37.6318 45.0721 39.2929 44.5154 41.3132" stroke="black" stroke-width="0.75" stroke-miterlimit="10" stroke-linecap="round" stroke-linejoin="round"/>
<path d="M26.2345 6.03504C26.1716 5.9991 26.1178 5.95424 26.0998 5.89138C25.8484 5.25388 28.6229 3.55687 32.2863 2.10227C33.7139 1.5366 35.0607 1.09665 36.192 0.791384C37.9789 0.324461 39.2359 0.225715 39.3885 0.620754C39.4065 0.656696 39.4065 0.70161 39.3975 0.755442C39.3706 0.970933 39.1012 1.26728 38.6343 1.61746C37.5928 2.40759 35.5905 3.4491 33.2021 4.40089C30.8137 5.35263 28.6408 5.96321 27.3389 6.10687C26.8181 6.16075 26.432 6.14276 26.2345 6.03504Z" stroke="black" stroke-width="0.75" stroke-miterlimit="10" stroke-linecap="round" stroke-linejoin="round"/>
<path d="M38.6339 1.61938C37.5922 2.40674 35.5892 3.45364 33.2004 4.40212C30.8116 5.35055 28.636 5.96268 27.3379 6.10436C28.3744 5.30387 30.3774 4.25697 32.7662 3.30854C35.155 2.36012 37.3306 1.74793 38.6339 1.61938Z" fill="black"/>
<path d="M28.7734 16.7527L30.2949 16.2572C30.5522 16.1734 30.8291 16.2475 30.9981 16.4418C33.5825 19.413 36.5706 21.9148 40.041 23.8559C40.4002 24.0568 40.8842 23.8728 41.0197 23.4835C42.3447 19.6782 42.8118 15.8339 42.4078 11.9501C42.3808 11.6909 42.5192 11.4362 42.7621 11.3088L45.1715 10.0453" stroke="black" stroke-width="0.75" stroke-miterlimit="10" stroke-linecap="round" stroke-linejoin="round"/>
<path d="M38.2954 17.7873C38.6937 17.6236 38.7596 16.8653 38.4425 16.0938C38.1254 15.3222 37.5454 14.8294 37.1471 14.9931C36.7487 15.1568 36.6828 15.9151 36.9999 16.6866C37.317 17.4582 37.897 17.951 38.2954 17.7873Z" fill="black"/>
<path d="M39.8227 21.4438C40.2211 21.2801 40.287 20.5218 39.9699 19.7503C39.6528 18.9787 39.0728 18.4859 38.6744 18.6496C38.2761 18.8133 38.2102 19.5715 38.5273 20.3431C38.8444 21.1147 39.4244 21.6075 39.8227 21.4438Z" fill="black"/>
<path d="M18.5668 55.2741C17.1046 56.4018 13.3497 56.7815 9.09395 56.099C3.79563 55.2454 -0.268804 53.0661 0.0138973 51.2277C0.158572 50.277 1.44719 49.6086 3.39365 49.3009C1.76516 49.607 0.718821 50.1811 0.592544 50.9798C0.333688 52.6834 4.41062 54.7552 9.70894 55.6088C13.4767 56.2163 16.8443 56.0392 18.5668 55.2741Z" fill="#030303"/>
<path d="M16.7176 51.1479C18.725 52.0513 19.9245 53.1148 19.7768 54.0646C19.6998 54.5564 19.2758 54.9582 18.5827 55.264C18.5784 55.2712 18.5722 55.2727 18.566 55.2741C16.8435 56.0392 13.4759 56.2164 9.70815 55.6089C4.40983 54.7553 0.332897 52.6834 0.591753 50.9799C0.718003 50.1811 1.76437 49.6071 3.39284 49.301C3.50576 49.2804 3.62667 49.264 3.75375 49.2462" stroke="black" stroke-width="0.75" stroke-miterlimit="10" stroke-linecap="round" stroke-linejoin="round"/>
<path d="M3.75391 49.2462C4.2012 49.1709 4.6964 49.1212 5.21913 49.0957C5.65025 49.0724 6.10358 49.0631 6.57542 49.0685" fill="white"/>
<path d="M3.75391 49.2462C4.2012 49.1709 4.6964 49.1212 5.21913 49.0957C5.65025 49.0724 6.10358 49.0631 6.57542 49.0685" stroke="black" stroke-width="0.75" stroke-miterlimit="10" stroke-linecap="round" stroke-linejoin="round"/>
<path d="M6.23828 52.4469C7.89037 50.9743 8.44707 49.2773 9.04866 47.311C9.34495 46.3413 9.60535 45.3715 9.82084 44.3928" stroke="black" stroke-width="0.75" stroke-miterlimit="10" stroke-linecap="round" stroke-linejoin="round"/>
<path d="M13.8794 53.3896C12.8019 51.4502 12.8378 49.6634 12.9097 47.6162C12.9815 45.5959 13.179 43.6565 13.628 41.6812C13.8614 40.6935 14.1308 39.6968 14.4989 38.7361" stroke="black" stroke-width="0.75" stroke-miterlimit="10" stroke-linecap="round" stroke-linejoin="round"/>
<path d="M6.82942 30.3141C5.52751 28.4285 4.53983 26.4262 4.79124 24.0917C4.89898 23.1579 5.15936 22.26 5.42873 21.3711C6.49721 17.8963 7.78119 14.4843 9.28965 11.1621" stroke="black" stroke-width="0.75" stroke-miterlimit="10" stroke-linecap="round" stroke-linejoin="round"/>
<path d="M24.4195 13.8108C24.6709 17.4293 24.6798 21.0657 24.4823 24.6752C24.4284 25.609 24.3566 26.5428 24.1321 27.4497C23.755 28.9312 22.8302 30.2331 21.7168 31.3286" stroke="black" stroke-width="0.75" stroke-miterlimit="10" stroke-linecap="round" stroke-linejoin="round"/>
<path d="M21.4316 12.0613C23.3536 12.6403 24.5681 13.2488 24.4904 13.6809C24.446 13.928 23.9899 14.0793 23.2273 14.146C21.8206 14.2631 19.3796 14.0761 16.638 13.5881C13.8964 13.1002 11.5416 12.4337 10.2628 11.8386C9.57063 11.513 9.19546 11.2138 9.23987 10.9667C9.36652 10.2619 12.8814 10.3025 17.0937 11.0522C18.7236 11.3423 20.2185 11.6959 21.4316 12.0613Z" stroke="black" stroke-width="0.75" stroke-miterlimit="10" stroke-linecap="round" stroke-linejoin="round"/>
<path d="M23.2282 14.146C21.8215 14.2631 19.3805 14.0761 16.6389 13.5882C13.8973 13.1002 11.5425 12.4337 10.2637 11.8387C11.673 11.7071 14.114 11.894 16.8557 12.382C19.5973 12.8699 21.9521 13.5365 23.2282 14.146Z" fill="black"/>
<path d="M5.59961 20.837C7.1324 20.4386 9.01373 20.8683 10.4742 21.6299C12.609 22.7432 13.4362 24.2262 14.2948 25.9468C14.4224 25.9266 14.5491 25.847 14.6112 25.7624C15.5898 24.4279 17.436 23.4926 19.5649 23.2527C21.2295 23.065 23.1716 23.3424 24.4792 24.2729" stroke="black" stroke-width="0.75" stroke-miterlimit="10" stroke-linecap="round" stroke-linejoin="round"/>
<path d="M9.82003 44.3928C10.6191 43.9708 11.2926 43.3423 11.6158 42.5342C11.8403 41.9954 11.8942 41.4208 11.8942 40.8372C11.8852 39.9842 11.7505 39.1133 11.8223 38.2692C11.9121 37.3085 12.2982 36.3837 12.8818 35.6115C13.0075 35.4499 13.6809 34.8932 13.5911 34.7046C13.4744 34.4622 12.6214 34.4083 12.397 34.4801C11.8133 34.6687 10.9514 34.7944 10.5653 35.3062C10.4306 35.4947 10.2959 35.6923 10.1882 35.9078C9.96369 36.3208 9.79309 36.7788 9.69432 37.2367C9.407 38.5296 9.64943 39.9663 8.99399 41.1245C8.60789 41.7979 7.99731 42.0493 7.43164 42.4893C8.08711 42.5342 8.7695 42.4534 9.41597 42.3636C9.18253 43.0011 9.00296 43.6655 8.86827 44.3389C8.84133 44.5006 8.77847 44.6801 8.9401 44.752C9.24539 44.6622 9.54168 44.5365 9.82003 44.3928Z" stroke="black" stroke-width="0.75" stroke-miterlimit="10" stroke-linecap="round" stroke-linejoin="round"/>
<path d="M17.693 39.5313C17.2252 38.6687 16.5238 37.8851 16.0809 36.9983C15.829 36.494 15.7919 35.9792 15.6188 35.4652C15.481 35.0562 14.8457 35.1852 14.505 34.8961C14.3679 34.7799 14.2473 34.6273 14.0705 34.5853C13.0879 34.352 13.6115 36.765 13.7478 37.1542C14.1825 38.3954 15.1379 39.5058 15.1884 40.8058C15.218 41.5697 14.8357 42.0818 14.5852 42.7307C15.1605 42.454 15.6973 42.0513 16.1942 41.6597C16.3324 42.3215 16.5224 42.9738 16.762 43.6094C16.8202 43.7638 16.8672 43.9444 17.0363 43.9304C17.8239 43.0607 18.329 41.8891 18.1346 40.7411C18.0619 40.3117 17.9004 39.9137 17.693 39.5313Z" stroke="black" stroke-width="0.75" stroke-miterlimit="10" stroke-linecap="round" stroke-linejoin="round"/>
<path d="M49.9475 5.22131C49.4897 5.95046 49.032 6.6796 48.5742 7.40874" stroke="black" stroke-width="0.75" stroke-miterlimit="10" stroke-linecap="round" stroke-linejoin="round"/>
<path d="M52.6252 6.85181C51.6521 7.50474 50.6389 8.09578 49.5957 8.61915" stroke="black" stroke-width="0.75" stroke-miterlimit="10" stroke-linecap="round" stroke-linejoin="round"/>
<path d="M53.2351 10.1477C52.2651 10.1386 51.2167 10.1196 50.0781 10.1082" stroke="black" stroke-width="0.75" stroke-miterlimit="10" stroke-linecap="round" stroke-linejoin="round"/>
<path d="M36.0125 12.7513C35.6085 13.5055 35.2044 14.2597 34.8094 15.0139C34.4412 15.6963 33.8127 17.4562 32.8879 16.6931C31.8912 15.858 31.5231 14.6728 31.0203 13.3978C30.9484 13.2182 30.8766 13.0476 30.8407 12.8681C30.8048 12.6885 30.8048 12.4999 30.8676 12.3742C30.9933 12.1407 31.2807 12.1767 31.4243 11.9791C31.4872 12.1946 31.559 12.4191 31.6308 12.6346C31.8643 13.3439 32.1426 14.0353 32.4748 14.6997C32.5736 14.9062 32.6903 15.1218 32.852 15.2205C33.0585 15.3373 33.256 15.2115 33.4086 15.0858C34.2796 14.3855 35.1595 13.6761 35.8689 12.7243L36.0125 12.7513Z" fill="black"/>
<path d="M41.551 12.0959C41.524 13.3619 39.863 12.7962 39.1536 12.6795C38.3634 12.5448 37.5733 12.4191 36.7832 12.2845L36.7921 12.2665C37.8517 12.2306 38.8483 11.9522 39.845 11.6649C40.0336 11.611 40.24 11.5303 40.2849 11.2699C40.3209 11.0723 40.24 10.8389 40.1592 10.6234C39.8899 9.93201 39.5666 9.24959 39.2075 8.61215C39.1087 8.44152 39.0099 8.26191 38.9112 8.09134L38.974 7.96562C39.3242 7.77705 39.6744 7.38196 40.1053 7.95665C40.2042 8.10031 40.2849 8.27094 40.3658 8.44152C40.9673 9.67166 41.5869 10.7311 41.551 12.0959Z" fill="black"/>
<path d="M36.0471 12.482C35.9932 12.5628 35.9304 12.6436 35.8675 12.7244C35.1582 13.6762 34.2782 14.3855 33.4073 15.0858C33.2546 15.2116 33.0571 15.3372 32.8506 15.2205C32.689 15.1217 32.5723 14.9062 32.4735 14.6997C32.1413 14.0353 31.8629 13.3439 31.6295 12.6346C31.5576 12.4191 31.4858 12.1946 31.423 11.9792C31.3601 11.7457 31.2973 11.5213 31.2613 11.2878C31.1895 10.8029 31.1716 10.5336 31.5666 10.5695C32.9045 10.6772 34.2872 11.1351 35.661 11.5931" stroke="black" stroke-width="0.75" stroke-miterlimit="10" stroke-linecap="round" stroke-linejoin="round"/>
<path d="M36.3345 12.2754C36.4872 12.2844 36.6398 12.2844 36.7924 12.2665C37.852 12.2306 38.8486 11.9522 39.8453 11.6649C40.0338 11.611 40.2403 11.5302 40.2852 11.2698C40.3211 11.0723 40.2403 10.8388 40.1595 10.6233C39.8902 9.93196 39.5669 9.24955 39.2078 8.61205C39.109 8.44147 39.0102 8.26187 38.9115 8.09129C38.7768 7.86683 38.6331 7.65134 38.4715 7.4538C38.1752 7.09464 37.9956 6.91504 37.7711 7.26522C37.008 8.46839 36.4692 9.94093 35.9395 11.3955" stroke="black" stroke-width="0.75" stroke-miterlimit="10" stroke-linecap="round" stroke-linejoin="round"/>
<path d="M36.7971 12.3459C36.7391 12.1782 36.6488 11.991 36.5947 11.8834C36.4712 11.6376 36.3311 11.4065 36.2067 11.1628C36.0521 10.8598 35.8561 10.8146 35.7064 10.89C35.539 10.9743 35.3528 11.1001 35.3327 11.4046C35.3256 11.5122 35.3734 11.6452 35.4206 11.7665C35.5292 12.0448 35.6574 12.3173 35.7595 12.5959C35.8172 12.7535 35.8803 13.0438 36.0188 13.1178C36.0801 13.1505 36.133 13.1304 36.182 13.11C36.397 13.0203 36.6143 12.9291 36.7849 12.7481C36.8184 12.7125 36.8514 12.669 36.8523 12.5967C36.8532 12.532 36.8305 12.4422 36.7971 12.3459Z" fill="black"/>
<path d="M13.3935 32.2853C13.3795 32.2001 13.3587 32.1259 13.3268 32.0453C13.3104 31.9885 13.2972 31.9364 13.2679 31.8811C13.1963 31.6442 13.1036 31.4072 12.9931 31.1748C12.9949 31.1669 12.9918 31.1622 12.9918 31.1622C12.9674 31.1037 12.9381 31.0483 12.9038 30.9961C12.7902 30.7589 12.6604 30.5184 12.5208 30.2842C12.2909 29.9122 12.0412 29.5526 11.7651 29.2165C11.6021 29.0105 11.4274 28.8185 11.2478 28.6296C11.0539 28.4296 10.8583 28.2374 10.654 28.0641C10.5764 27.9989 10.5019 27.9384 10.4274 27.878C10.2039 27.6966 9.95323 27.5056 9.68668 27.3648C9.63088 27.3328 9.57507 27.3009 9.51253 27.2799C9.35576 27.2109 9.1917 27.1734 9.01727 27.1625C8.95602 27.1542 8.90411 27.16 8.85714 27.1628C8.60613 27.1734 8.37043 27.2817 8.16458 27.425C8.06412 27.495 7.96807 27.5825 7.88813 27.6732C7.76014 27.8076 7.66436 27.9486 7.56673 28.0975C7.55141 28.1273 7.52935 28.168 7.51402 28.1978C7.189 28.7654 7.0389 29.4509 7.22675 30.0777C7.23687 30.125 7.27242 30.1899 7.33421 30.1778L7.33239 30.1857" stroke="black" stroke-width="0.75" stroke-miterlimit="10" stroke-linecap="round" stroke-linejoin="round"/>
<path d="M13.2441 32.4731L13.0668 32.3835L12.8895 32.2939L12.4028 32.0301L11.4005 31.5007L10.7955 31.1839L10.3008 30.9185C10.4736 30.9907 10.6384 31.0614 10.8064 31.1367C11.0431 31.2426 11.2798 31.3485 11.5097 31.4653C11.8166 31.6143 12.1166 31.7742 12.4148 31.942C12.5791 32.0331 12.7416 32.132 12.8991 32.2341L13.0852 32.3585C13.1392 32.3983 13.195 32.4303 13.2441 32.4731Z" fill="white" stroke="black" stroke-width="0.75" stroke-miterlimit="10" stroke-linecap="round" stroke-linejoin="round"/>
<path d="M13.2827 32.4946C13.2827 32.4946 13.2827 32.4946 13.2798 32.4987L13.2461 32.4763L13.2827 32.4946Z" fill="white" stroke="black" stroke-width="0.75" stroke-miterlimit="10" stroke-linecap="round" stroke-linejoin="round"/>
<path d="M9.41928 30.5617C9.20619 30.4812 8.99129 30.4086 8.78076 30.3533C8.68915 30.3305 8.59753 30.3077 8.50901 30.2897C8.33381 30.2458 8.15499 30.2175 7.97613 30.1893C7.8988 30.1777 7.82094 30.1865 7.74852 30.1718L7.74358 30.1749C7.60133 30.1705 7.47025 30.1726 7.33244 30.1857C7.26442 30.1883 7.17046 30.1939 7.08453 30.201C7.07337 30.1946 7.07155 30.2025 7.05857 30.204C7.05857 30.204 7.04741 30.1975 7.0425 30.2007C7.0116 30.2067 6.98383 30.2175 6.95606 30.2284C6.85793 30.2701 6.78965 30.3467 6.74188 30.444C6.71176 30.4831 6.69774 30.5255 6.67568 30.5663C6.60351 30.7327 6.53445 30.9038 6.47031 31.0718C6.05071 32.3033 6.12222 33.6883 6.56644 34.9189C6.5802 34.9505 6.59526 34.9947 6.60901 35.0263C6.65726 35.1638 6.69566 35.3074 6.7551 35.4512C6.80258 35.5555 6.85681 35.6489 6.94429 35.7079C7.06031 35.7891 7.19398 35.8123 7.34555 35.8308C7.44082 35.8379 7.52932 35.8559 7.62147 35.8582C7.64067 35.8663 7.66171 35.8665 7.68272 35.8666C7.6957 35.8651 7.72478 35.8669 7.73463 35.8608C7.78785 35.8675 7.833 35.8726 7.88 35.8698C7.94929 35.8798 8.0204 35.882 8.09958 35.8857C8.14163 35.8861 8.19173 35.888 8.23378 35.8884C8.42612 35.8947 8.61221 35.8915 8.80819 35.882C8.92629 35.8814 9.0444 35.8808 9.16301 35.8597C9.28293 35.8512 9.40779 35.8396 9.53135 35.8154C9.58948 35.819 9.64323 35.8053 9.69514 35.7994C9.80572 35.7766 9.91939 35.7586 10.0398 35.7297C10.1894 35.7026 10.3376 35.6628 10.4938 35.6247C10.6389 35.5802 10.7939 35.5295 10.9309 35.4833C11.1365 35.4141 11.3476 35.3213 11.5505 35.2268L11.5802 35.2082C11.6863 35.1681 11.7733 35.12 11.867 35.0608C11.9768 35.005 12.0902 34.9335 12.1969 34.873L12.3171 34.7905C12.3251 34.7921 12.3319 34.7811 12.3399 34.7828C12.3449 34.7796 12.3449 34.7796 12.3498 34.7765C12.5821 34.6098 12.8113 34.4385 13.0102 34.2526C13.0367 34.2292 13.0681 34.2027 13.0964 34.1714C13.1413 34.1229 13.1893 34.0793 13.2324 34.0386" stroke="black" stroke-width="0.75" stroke-miterlimit="10" stroke-linecap="round" stroke-linejoin="round"/>
<path d="M13.1086 33.5935C13.1182 33.6613 13.126 33.737 13.1455 33.7985C13.1517 33.808 13.153 33.8206 13.1561 33.8254C13.1525 33.8411 13.1574 33.838 13.1667 33.8523C13.1662 33.8727 13.175 33.9074 13.1937 33.9359C13.195 33.9486 13.2043 33.9628 13.2056 33.9754C13.2088 33.9802 13.207 33.9881 13.215 33.9897C13.2163 34.0023 13.2225 34.0118 13.2256 34.0165C13.2287 34.0213 13.2287 34.0213 13.2287 34.0213L13.2319 34.0261C13.235 34.0308 13.235 34.0308 13.235 34.0308L13.2301 34.0339L13.2332 34.0386C13.1901 34.0793 13.1421 34.123 13.0972 34.1714C13.0688 34.2027 13.0374 34.2292 13.011 34.2526C12.8121 34.4385 12.5829 34.6099 12.3506 34.7765C12.3456 34.7796 12.3456 34.7796 12.3407 34.7828C12.3326 34.7811 12.3259 34.7921 12.3179 34.7904L12.1977 34.8729C12.091 34.9336 11.9775 35.0051 11.8677 35.0609C11.774 35.12 11.6871 35.1681 11.5809 35.2082L11.5513 35.2269C11.3483 35.3213 11.1373 35.4141 10.9317 35.4833C10.7946 35.5294 10.6397 35.5802 10.4946 35.6247C10.3383 35.6628 10.1901 35.7025 10.0406 35.7297C9.92018 35.7587 9.80645 35.7767 9.69588 35.7994C9.64399 35.8053 9.59024 35.819 9.53208 35.8154C9.40855 35.8396 9.28369 35.8512 9.16377 35.8597C9.04513 35.8808 8.92705 35.8814 8.80895 35.882C8.61298 35.8914 8.42686 35.8947 8.23452 35.8884C8.19249 35.8881 8.14239 35.8861 8.10034 35.8858C8.02429 35.8867 7.95318 35.8846 7.88204 35.8824C7.81587 35.8772 7.74968 35.8719 7.68348 35.8666C7.66244 35.8664 7.64143 35.8663 7.62223 35.8583C7.5301 35.856 7.44158 35.8379 7.34631 35.8308C7.19474 35.8123 7.06107 35.7892 6.94505 35.7079C6.85757 35.6489 6.80334 35.5556 6.75586 35.4512C6.86077 35.1433 7.05258 34.9149 7.37058 34.6876C7.64236 34.496 7.94658 34.3646 8.26536 34.2979C8.34995 34.2781 8.4377 34.263 8.5205 34.2511C8.56253 34.2514 8.60641 34.2439 8.64534 34.2395C9.14113 34.2088 9.64805 34.3122 10.1472 34.3398C10.1552 34.3414 10.1552 34.3414 10.1552 34.3414C10.1843 34.3433 10.2102 34.3403 10.2344 34.3452C10.2715 34.3487 10.3104 34.3443 10.3476 34.3477C10.8973 34.3569 11.4421 34.2416 11.9657 34.0725C11.9706 34.0694 11.9836 34.068 11.9935 34.0617C12.2004 34.0052 12.3953 33.909 12.5952 33.8099C12.6964 33.7729 12.7815 33.7326 12.8815 33.683L12.8864 33.6799C12.9581 33.6615 13.0302 33.6228 13.1086 33.5935Z" fill="black"/>
<path d="M21.105 32.1696C21.113 32.1712 21.1242 32.1776 21.134 32.1714C21.168 32.17 21.1982 32.131 21.2296 32.1044C21.6244 31.5264 21.671 30.7786 21.507 30.1032C21.4655 29.9548 21.4253 29.819 21.364 29.6831C21.3028 29.5471 21.2366 29.4143 21.1445 29.2843C20.9677 29.0467 20.7121 28.8588 20.41 28.7807C20.1463 28.7187 19.8823 28.7308 19.6235 28.7933C19.3535 28.8494 19.0906 28.948 18.8487 29.0469C17.7198 29.4835 16.6126 30.2086 15.7134 31.0913C15.5756 31.2319 15.4427 31.3694 15.316 31.5165C15.1395 31.7151 14.9772 31.9248 14.8279 32.1331C14.8212 32.1441 14.8095 32.1581 14.8027 32.1691" stroke="black" stroke-width="0.75" stroke-miterlimit="10" stroke-linecap="round" stroke-linejoin="round"/>
<path d="M18.123 31.9816L16.5309 32.2538L15.6665 32.4028L14.9727 32.5248C15.2073 32.4574 15.437 32.3931 15.673 32.3383C15.9219 32.282 16.174 32.2304 16.4273 32.1916C16.9895 32.0921 17.5556 32.0305 18.123 31.9816Z" fill="white" stroke="black" stroke-width="0.75" stroke-miterlimit="10" stroke-linecap="round" stroke-linejoin="round"/>
<path d="M19.6448 31.8884C19.7982 31.8991 19.9467 31.9129 20.0952 31.9267C20.2306 31.942 20.3612 31.9604 20.49 31.9866C20.6991 32.0293 20.9029 32.0955 21.1017 32.1648L21.1048 32.1696C21.1129 32.1712 21.124 32.1776 21.1339 32.1714C21.1897 32.2033 21.2634 32.2306 21.326 32.2516C21.5502 32.3385 21.5733 32.5119 21.6065 32.7327C21.6296 32.9062 21.6379 33.089 21.6431 33.267C21.6604 33.9208 21.5453 34.564 21.3244 35.1734C21.0956 35.8347 20.7449 36.4587 20.3022 37.0064C20.2285 37.1066 20.1439 37.254 20.0455 37.3697C19.9957 37.4213 19.9427 37.4681 19.8835 37.5054C19.849 37.5272 19.8163 37.5412 19.7836 37.5551C19.728 37.5767 19.6551 37.5823 19.5889 37.5771C19.5679 37.5769 19.5438 37.572 19.5227 37.5719C19.4726 37.5698 19.4163 37.5584 19.3631 37.5517C18.1717 37.3294 17.0089 36.8743 16.052 36.1484C15.7424 35.9206 15.4467 35.6505 15.1856 35.3585C14.9022 35.0539 14.6596 34.7369 14.4551 34.3824" stroke="black" stroke-width="0.75" stroke-miterlimit="10" stroke-linecap="round" stroke-linejoin="round"/>
<path d="M19.7956 36.607C19.9607 36.8587 20.0372 37.0925 20.0416 37.365C19.9948 37.4213 19.9419 37.4682 19.8827 37.5054C19.8482 37.5272 19.8155 37.5412 19.7828 37.5551C19.7272 37.5766 19.6543 37.5824 19.5881 37.5771C19.5671 37.577 19.5429 37.572 19.5219 37.5718C19.4718 37.5699 19.4155 37.5584 19.3623 37.5516C18.1709 37.3294 17.0081 36.8743 16.0512 36.1484C15.7415 35.9206 15.4459 35.6505 15.1848 35.3586C14.9014 35.0539 14.6588 34.7369 14.4543 34.3824L14.4512 34.3777C14.5947 34.267 14.7183 34.1152 14.8201 33.9302C15.0082 34.1002 15.1964 34.2703 15.3962 34.4263C15.4185 34.439 15.4502 34.4661 15.4676 34.482C15.9267 34.8101 16.4116 35.0818 16.9527 35.2374C17.5355 35.4137 18.167 35.4519 18.727 35.6896C19.1045 35.8612 19.439 36.1268 19.691 36.4581C19.7333 36.5119 19.7725 36.5611 19.7956 36.607Z" fill="black"/>
<path d="M14.1508 31.8016C14.1378 31.8031 14.1298 31.8015 14.12 31.8077C14.1069 31.8092 14.1038 31.8044 14.094 31.8106C14.073 31.8105 14.047 31.8134 14.0322 31.8227C14.0031 31.8209 13.9852 31.8255 13.9655 31.838C13.9445 31.8378 13.9216 31.8454 13.9068 31.8548C13.879 31.8656 13.8513 31.8764 13.8167 31.8981C13.789 31.909 13.7643 31.9245 13.7347 31.9432C13.7101 31.9588 13.6903 31.9712 13.6688 31.9914C13.6719 31.9962 13.662 32.0024 13.6571 32.0055C13.6521 32.0087 13.6504 32.0165 13.6454 32.0196C13.6356 32.0258 13.6226 32.0273 13.6158 32.0383C13.5943 32.0586 13.5727 32.0789 13.5512 32.0992C13.5543 32.104 13.5494 32.1071 13.5476 32.1149C13.5328 32.1243 13.526 32.1352 13.5162 32.1415C13.5063 32.1477 13.4995 32.1587 13.4897 32.1649C13.4798 32.1711 13.4749 32.1742 13.4762 32.1868C13.4712 32.19 13.4645 32.2009 13.4596 32.204C13.4577 32.2118 13.4577 32.2118 13.4577 32.2118C13.4429 32.2212 13.4344 32.24 13.4307 32.2557C13.4191 32.2698 13.4092 32.276 13.3975 32.2901C13.357 32.3559 13.3183 32.4139 13.2872 32.494L13.2822 32.4971C13.2822 32.4971 13.2822 32.4971 13.2773 32.5002C13.243 32.5755 13.2051 32.6666 13.1833 32.7609C13.1613 32.8017 13.1473 32.8441 13.1363 32.8913C13.1317 32.9479 13.1208 32.9951 13.1148 33.0392L13.1098 33.0423C13.1062 33.0579 13.1026 33.0737 13.107 33.0911C13.1034 33.1068 13.1028 33.1273 13.1023 33.1477C13.095 33.1792 13.094 33.2201 13.0916 33.2484C13.0864 33.3256 13.0911 33.3965 13.0926 33.4627C13.0903 33.491 13.0997 33.5052 13.0942 33.5288C13.1017 33.5509 13.1092 33.573 13.1088 33.5936C13.1183 33.6613 13.1261 33.737 13.1456 33.7986C13.1518 33.8081 13.1531 33.8207 13.1562 33.8254C13.1526 33.8411 13.1575 33.838 13.1669 33.8523C13.1663 33.8728 13.1752 33.9075 13.1938 33.936C13.1951 33.9486 13.2045 33.9628 13.2058 33.9755C13.2089 33.9802 13.2089 33.9802 13.2071 33.9881L13.2151 33.9898C13.2164 34.0023 13.2226 34.0118 13.2257 34.0166C13.2289 34.0214 13.2289 34.0214 13.2289 34.0214L13.232 34.0261C13.2351 34.0308 13.2351 34.0308 13.2351 34.0308L13.2302 34.0339L13.2333 34.0387L13.2382 34.0356C13.2458 34.0577 13.2551 34.072 13.2644 34.0862C13.2626 34.0941 13.2657 34.0988 13.2738 34.1004C13.2982 34.1589 13.3355 34.2159 13.3716 34.2603C13.3797 34.262 13.3797 34.262 13.3797 34.262C13.389 34.2762 13.3983 34.2905 13.4157 34.3064C13.4456 34.3413 13.4754 34.3762 13.512 34.4C13.5579 34.4383 13.6168 34.475 13.6745 34.499C13.6856 34.5054 13.7049 34.5135 13.7209 34.5167C13.7049 34.5135 13.6869 34.5181 13.6708 34.5147L13.6677 34.51C13.6467 34.5098 13.6257 34.5097 13.6096 34.5064C13.3968 34.4794 13.2218 34.3615 13.0973 34.1714C12.9971 34.04 12.9351 33.8709 12.8816 33.6831C12.8367 33.4764 12.8264 33.2479 12.8586 32.9993C12.9014 32.7775 12.9715 32.5655 13.0684 32.3835C13.0751 32.3726 13.0739 32.36 13.0868 32.3585C13.153 32.2361 13.2366 32.1298 13.3277 32.0454C13.3708 32.0048 13.409 31.9674 13.4534 31.9393C13.4995 31.9035 13.5489 31.8724 13.5982 31.8413C13.7358 31.7747 13.8804 31.7506 14.0351 31.7739C14.0802 31.779 14.1155 31.7903 14.1508 31.8016Z" fill="black"/>
<path d="M13.2294 34.0214C13.2294 34.0214 13.2294 34.0214 13.2313 34.0135C13.225 34.004 13.2219 33.9993 13.2157 33.9898L13.2077 33.9881C13.2095 33.9802 13.2095 33.9802 13.2064 33.9755C13.2051 33.9629 13.1957 33.9487 13.1944 33.936C13.1757 33.9076 13.1669 33.8728 13.1674 33.8523C13.1581 33.8381 13.1532 33.8412 13.1568 33.8255C13.1537 33.8207 13.1524 33.8081 13.1462 33.7986C13.1267 33.737 13.1189 33.6614 13.1093 33.5936C13.1098 33.5731 13.1023 33.551 13.0948 33.5289C13.1003 33.5053 13.0909 33.4911 13.0933 33.4627C13.0917 33.3965 13.087 33.3257 13.0922 33.2485C13.0946 33.2202 13.0956 33.1792 13.1029 33.1478C13.1034 33.1273 13.1039 33.1069 13.1076 33.0911C13.1112 33.0754 13.1148 33.0596 13.1154 33.0392C13.1213 32.9951 13.1322 32.948 13.1369 32.8913C13.1478 32.8442 13.1618 32.8017 13.1839 32.7609C13.2057 32.6666 13.2436 32.5756 13.2779 32.5003C13.2828 32.4971 13.2828 32.4971 13.2828 32.4971L13.2878 32.494C13.3189 32.414 13.3576 32.356 13.3981 32.2902C13.4098 32.2761 13.4196 32.2699 13.4313 32.2558C13.435 32.2401 13.4435 32.2212 13.4583 32.2119C13.4583 32.2119 13.4583 32.2119 13.4602 32.204C13.4651 32.2009 13.4718 32.1899 13.4768 32.1868C13.4736 32.1821 13.4835 32.1759 13.4983 32.1665C13.5001 32.1587 13.51 32.1524 13.5167 32.1415C13.5266 32.1353 13.5333 32.1243 13.5482 32.115C13.55 32.1071 13.5549 32.104 13.5518 32.0993C13.5733 32.079 13.5949 32.0587 13.6164 32.0384C13.6232 32.0274 13.6362 32.0259 13.646 32.0197C13.6509 32.0166 13.6528 32.0087 13.6577 32.0056C13.6793 31.9853 13.7057 31.9619 13.7353 31.9432C13.7649 31.9246 13.7896 31.909 13.8174 31.8982C13.8519 31.8764 13.8797 31.8657 13.9074 31.8548C13.9222 31.8455 13.945 31.8378 13.9661 31.838C13.9858 31.8256 14.0037 31.821 14.0328 31.8228C14.0476 31.8134 14.0735 31.8105 14.0946 31.8107C14.1044 31.8045 14.1076 31.8092 14.1205 31.8077C14.1304 31.8015 14.1384 31.8031 14.1514 31.8017L14.1545 31.8064C14.1545 31.8064 14.1545 31.8064 14.1563 31.7986C14.1966 31.8068 14.2404 31.7992 14.2789 31.8153C14.4756 31.839 14.6474 31.9522 14.7756 32.1264C14.785 32.1407 14.7912 32.1502 14.8005 32.1645L14.8036 32.1692C14.8317 32.2119 14.8535 32.2452 14.8766 32.2911C14.9153 32.3607 14.9472 32.4413 14.9741 32.5249C15.0427 32.757 15.0644 33.0455 15.0249 33.3255C14.9821 33.5472 14.92 33.761 14.8219 33.9303C14.7201 34.1153 14.5966 34.2671 14.453 34.3777C14.4283 34.3933 14.4068 34.4136 14.384 34.4213C14.2163 34.5271 14.0353 34.5807 13.8534 34.5478C13.8082 34.5427 13.7631 34.5376 13.7296 34.5184L13.7246 34.5215L13.7215 34.5168C13.7054 34.5135 13.6862 34.5055 13.6751 34.4991C13.6175 34.475 13.5585 34.4383 13.5126 34.4001C13.476 34.3762 13.4462 34.3413 13.4163 34.3064C13.402 34.2953 13.3878 34.2841 13.3784 34.2699C13.3802 34.262 13.3802 34.262 13.3802 34.262C13.3802 34.262 13.3802 34.262 13.3722 34.2604C13.3361 34.216 13.2987 34.159 13.2744 34.1005C13.2663 34.0989 13.2632 34.0941 13.265 34.0863C13.2557 34.072 13.2463 34.0577 13.2388 34.0356L13.2339 34.0387L13.2308 34.034L13.2357 34.0309C13.2357 34.0309 13.2357 34.0309 13.2326 34.0261L13.2294 34.0214Z" stroke="black" stroke-width="0.75" stroke-miterlimit="10" stroke-linecap="round" stroke-linejoin="round"/>
</svg>
