<svg width="65" height="58" viewBox="0 0 65 58" fill="none" xmlns="http://www.w3.org/2000/svg">
<path d="M64.3625 33.4581C64.4135 35.7311 64.2504 37.9429 63.8528 40.063C63.8324 40.1548 63.7917 40.2465 63.7305 40.3281C61.2129 43.4164 58.4812 46.3317 55.6884 49.155C54.2512 50.6024 52.7937 52.0294 51.3259 53.436C50.5716 54.1597 49.8071 54.8834 49.0427 55.6071C48.6757 55.9537 48.3088 56.3817 47.9011 56.6875C47.5443 56.9525 47.0347 56.8608 46.6066 56.8098C46.5046 56.7996 46.4027 56.7895 46.3008 56.769C46.7493 56.4836 47.1978 56.1779 47.6157 55.7803C53.8231 49.9807 59.5209 44.3441 63.7305 39.1661C63.7917 39.0845 63.8324 38.9928 63.8528 38.9011C64.179 37.1377 64.3523 35.3234 64.3625 33.4581Z" fill="black"/>
<path d="M46.9129 47.2795C46.9027 47.0858 46.9027 46.9023 46.9027 46.7189C46.8924 46.3519 46.9027 45.985 46.9129 45.6283C46.9333 45.6996 46.9333 45.7811 46.9333 45.8627C46.9129 46.3316 46.9027 46.8004 46.9129 47.2795Z" fill="black"/>
<path d="M46.4635 57.0443C29.7982 54.3329 14.3866 51.2446 1.64561 47.3713C1.30928 47.2693 1.04426 46.9839 0.983103 46.6374C0.524424 44.3033 0.320536 42.0302 0.381693 39.8082C0.391917 41.6837 0.595774 43.6 0.983103 45.5569C1.04426 45.9035 1.30928 46.1889 1.64561 46.301C14.3866 50.1641 29.7982 53.2526 46.4635 55.9638C46.9119 56.0453 47.3196 55.7905 47.4929 55.4134C47.5133 55.5867 47.5337 55.7702 47.5643 55.9435C47.6662 56.5958 47.1056 57.1564 46.4635 57.0443Z" fill="black"/>
<path d="M62.2207 28.3617C63.3317 28.5452 63.9943 28.6573 63.9943 28.6573C63.9637 28.6981 63.9433 28.749 63.9127 28.7898" stroke="black" stroke-width="0.75" stroke-miterlimit="10" stroke-linecap="round" stroke-linejoin="round"/>
<path d="M8.82111 29.6561L1.29883 35.1296" stroke="black" stroke-width="0.75" stroke-miterlimit="10" stroke-linecap="round" stroke-linejoin="round"/>
<path d="M47.2337 56.1137C47.3631 56.0095 47.4906 55.899 47.6154 55.7804C53.8228 49.9806 59.5206 44.344 63.7302 39.1661C63.7914 39.0845 63.8321 38.9928 63.8525 38.901C64.1787 37.1377 64.352 35.3233 64.3622 33.4581C64.3825 32.0719 64.3214 30.6551 64.1787 29.2077C64.1379 28.7388 63.5569 28.5146 63.2002 28.8305C57.747 33.662 52.2837 38.6564 46.8203 43.8344" stroke="black" stroke-width="0.75" stroke-miterlimit="10" stroke-linecap="round" stroke-linejoin="round"/>
<path d="M22.9801 39.1151C30.5534 40.5828 38.2999 42.1525 46.1994 43.8038C46.658 43.8955 46.9536 44.3236 46.9332 44.7823C46.923 45.0575 46.9129 45.3429 46.9129 45.6283C46.9027 45.985 46.8925 46.3519 46.9027 46.7189C46.9027 46.9023 46.9027 47.0858 46.9129 47.2795C46.9434 49.7156 47.1779 52.2536 47.5652 54.863C47.5958 55.0566 47.5652 55.2503 47.4939 55.4134C47.3206 55.7905 46.9129 56.0453 46.4644 55.9638C29.7991 53.2525 14.3876 50.1641 1.64656 46.301C1.3102 46.1888 1.04518 45.9035 0.984024 45.5569C0.596695 43.5999 0.392838 41.6837 0.382645 39.8082C0.372452 39.7674 0.372452 39.7164 0.382645 39.6757C0.372452 38.4016 0.443802 37.1478 0.606888 35.9145C0.657852 35.5272 0.943253 35.2214 1.3 35.1296C1.42232 35.0889 1.56502 35.0787 1.69753 35.0991C6.46776 35.9655 11.3195 36.8726 16.2529 37.8104" stroke="black" stroke-width="0.75" stroke-miterlimit="10" stroke-linecap="round" stroke-linejoin="round"/>
<path d="M28.9586 44.5161C29.757 44.6801 30.5597 44.8466 31.3663 45.0154C31.5427 45.0524 31.6602 45.2183 31.6526 45.3984C31.6 46.6484 31.6944 47.9689 31.9002 49.3428C31.9383 49.5966 31.7199 49.8156 31.4665 49.7743C24.9483 48.7117 18.9176 47.5055 13.9351 45.991C13.8009 45.9501 13.6997 45.8377 13.6729 45.6999C13.4198 44.3982 13.3654 43.1401 13.5277 41.9298C13.5552 41.7247 13.7494 41.5731 13.9531 41.6102C17.9598 42.3403 22.1247 43.1348 26.4186 43.9994" stroke="black" stroke-width="0.75" stroke-miterlimit="10" stroke-linecap="round" stroke-linejoin="round"/>
<path d="M36.8611 23.0613C34.7818 22.9186 32.5597 22.8575 30.2663 22.8983C23.0702 23.0104 16.6997 24.0603 12.7755 25.5586C10.1763 26.5575 8.65755 27.7501 8.67794 29.0242C8.7289 32.2145 18.4733 34.6404 30.4498 34.4467C37.4319 34.3346 43.6291 33.346 47.5737 31.919C47.5839 31.9088 47.6043 31.9088 47.6145 31.8986C49.0925 31.3583 50.2443 30.757 51.0087 30.1046C51.6916 29.544 52.0484 28.9426 52.0382 28.3209C52.0178 26.9244 50.1321 25.6707 47.0233 24.7228" stroke="black" stroke-width="0.75" stroke-miterlimit="10" stroke-linecap="round" stroke-linejoin="round"/>
<path d="M30.1225 30.0981C33.061 30.0513 35.4331 29.3919 35.4209 28.6253C35.4087 27.8587 33.0167 27.2752 30.0783 27.3221C27.1399 27.3689 24.7677 28.0283 24.7799 28.7949C24.7921 29.5614 27.1841 30.1449 30.1225 30.0981Z" fill="black"/>
<path d="M43.8142 20.9821L42.4382 25.8032C42.3159 26.2211 41.7451 26.2313 41.6024 25.8338L40.043 21.298L40.2366 21.2776C40.5118 21.7567 41.0214 22.0726 41.6126 22.0726H42.1427C42.846 22.0726 43.4473 21.6242 43.6614 20.9922L43.8142 20.9821Z" fill="black"/>
<path d="M36.2625 49.1057C36.2625 50.8445 37.6923 52.2528 39.4742 52.2815C39.2515 52.3246 39.0144 52.3534 38.7701 52.3534C36.9307 52.3534 35.4434 50.8732 35.4434 49.0482C35.4434 47.2161 36.9307 45.736 38.7701 45.736C39.194 45.736 39.6036 45.8149 39.9772 45.9658C39.8335 45.9371 39.6754 45.93 39.5245 45.93C37.721 45.93 36.2625 47.3454 36.2625 49.1057Z" fill="black"/>
<path d="M39.9784 45.9657C40.6466 46.0519 41.2573 46.3322 41.7244 46.7561C42.3782 47.3381 42.7949 48.1716 42.7949 49.1057C42.7949 50.8588 41.3292 52.2814 39.5257 52.2814C39.5114 52.2814 39.4898 52.2814 39.4754 52.2814C37.6935 52.2527 36.2637 50.8444 36.2637 49.1057C36.2637 47.3453 37.7223 45.9298 39.5257 45.9298C39.6766 45.9298 39.8347 45.937 39.9784 45.9657Z" stroke="black" stroke-width="0.75" stroke-miterlimit="10" stroke-linecap="round" stroke-linejoin="round"/>
<path d="M4.53549 42.8497C4.53549 44.4134 5.82144 45.68 7.42401 45.7058C7.22369 45.7446 7.01047 45.7705 6.79074 45.7705C5.13647 45.7705 3.79883 44.4393 3.79883 42.7979C3.79883 41.1501 5.13647 39.819 6.79074 39.819C7.17203 39.819 7.54037 39.89 7.87637 40.0258C7.74713 39.9999 7.60498 39.9935 7.46927 39.9935C5.84729 39.9935 4.53549 41.2665 4.53549 42.8497Z" fill="black"/>
<path d="M7.87604 40.0257C8.47702 40.1032 9.02628 40.3552 9.44632 40.7365C10.0344 41.2599 10.4091 42.0095 10.4091 42.8496C10.4091 44.4263 9.09091 45.7058 7.46893 45.7058C7.45602 45.7058 7.43662 45.7058 7.42371 45.7058C5.82111 45.68 4.53516 44.4134 4.53516 42.8496C4.53516 41.2664 5.84695 39.9934 7.46893 39.9934C7.60464 39.9934 7.7468 39.9998 7.87604 40.0257Z" stroke="black" stroke-width="0.75" stroke-miterlimit="10" stroke-linecap="round" stroke-linejoin="round"/>
<path d="M17.4687 46.4872C17.4523 46.1209 17.4478 45.7533 17.4554 45.3863C17.4608 45.1251 17.38 44.4265 17.5381 44.25C17.5615 44.2238 17.5914 44.2181 17.6199 44.2138C17.9955 44.1572 18.4368 44.1757 18.8038 44.3226C18.8311 44.3335 18.8596 44.3468 18.8794 44.3784C19.0255 44.6116 18.966 45.3877 18.968 45.6848C18.9716 46.2105 18.9591 46.7361 18.9626 47.2619" fill="black"/>
<path d="M20.6389 47.4868C20.5809 46.8199 20.5555 46.148 20.5667 45.4784C20.5721 45.1589 20.4913 44.3042 20.6494 44.0881C20.6728 44.0561 20.7027 44.0491 20.7312 44.0439C21.1069 43.9747 21.5481 43.9972 21.9151 44.177C21.9425 44.1903 21.9709 44.2066 21.9908 44.2453C22.1369 44.5306 22.0774 45.4802 22.0794 45.8436C22.0829 46.4869 22.0704 47.1299 22.0739 47.7731" fill="black"/>
<path d="M23.7736 48.2434C23.7157 47.7687 23.6902 47.2903 23.7015 46.8135C23.7068 46.5859 23.6261 45.9775 23.7842 45.8236C23.8076 45.8008 23.8375 45.7958 23.866 45.7921C24.2417 45.7429 24.6829 45.7589 25.0499 45.8869C25.0772 45.8964 25.1057 45.908 25.1255 45.9355C25.2717 46.1387 25.2121 46.8148 25.2141 47.0736C25.2177 47.5315 25.2052 47.9894 25.2087 48.4473" fill="black"/>
<path d="M32.2598 8.18182C31.6845 8.23865 31.1065 8.38257 30.6429 8.6861C30.1793 8.98969 29.8447 9.47101 29.8557 9.97766C29.8585 10.1042 29.8827 10.2318 29.9421 10.3472C30.0399 10.5375 30.2272 10.6832 30.4328 10.7889C30.8845 11.0209 31.4488 11.0779 31.9489 10.942C33.0333 10.6471 33.6073 9.64227 33.4766 8.70679C33.3489 7.7934 32.8166 6.95599 32.3504 6.14728C31.7413 5.0907 31.2117 4.01337 30.5326 2.9856C29.5747 1.53571 32.972 0.836731 34.065 0.375122" stroke="black" stroke-width="0.75" stroke-miterlimit="10" stroke-linecap="round" stroke-linejoin="round"/>
<path d="M17.2188 18.4368C16.8602 18.4934 16.5027 18.6124 16.2218 18.8425C15.9409 19.0726 15.7465 19.4263 15.7694 19.7887C15.7751 19.8792 15.7943 19.9698 15.8352 20.0508C15.9025 20.1843 16.0244 20.2835 16.1566 20.3534C16.4468 20.507 16.8022 20.5322 17.1112 20.421C17.7813 20.18 18.1091 19.445 17.9977 18.779C17.8889 18.1287 17.5289 17.5441 17.2113 16.9782C16.7964 16.2387 16.4305 15.4823 15.9727 14.7655C15.6528 14.2647 16.0659 13.8421 16.4784 13.5792C16.7315 13.418 17.0047 13.2897 17.2785 13.1682C17.9342 12.8775 18.5533 12.4942 19.2332 12.2615C19.712 12.0976 20.3594 12.0059 20.5488 12.6097C20.8035 13.4213 21.1477 14.1878 21.4472 14.981C21.6765 15.5881 21.8929 16.2397 22.321 16.7412C22.7594 17.2547 23.5332 17.4761 24.1486 17.1179C24.4324 16.9526 24.6416 16.6643 24.7105 16.3432C24.742 16.197 24.7444 16.0399 24.6854 15.9025C24.6496 15.8192 24.5926 15.7462 24.527 15.6836C24.2642 15.4331 23.8682 15.3546 23.5114 15.4218C23.1546 15.489 22.8336 15.6863 22.5597 15.9246" stroke="black" stroke-width="0.75" stroke-miterlimit="10" stroke-linecap="round" stroke-linejoin="round"/>
<path d="M56.2344 2.39563C56.6147 3.2959 56.995 4.19617 57.3754 5.09644" stroke="black" stroke-width="0.75" stroke-miterlimit="10" stroke-linecap="round" stroke-linejoin="round"/>
<path d="M59.4935 0.965454C59.4676 2.29547 59.3581 3.6225 59.166 4.93353" stroke="black" stroke-width="0.75" stroke-miterlimit="10" stroke-linecap="round" stroke-linejoin="round"/>
<path d="M62.9565 2.54309C62.3168 3.43945 61.6168 4.40234 60.8652 5.45392" stroke="black" stroke-width="0.75" stroke-miterlimit="10" stroke-linecap="round" stroke-linejoin="round"/>
<path d="M40.8676 9.47424C40.837 9.49463 40.8167 9.51508 40.786 9.5354H40.7758C40.7758 9.5354 40.7656 9.5354 40.7554 9.54559C40.7453 9.54559 40.7351 9.55579 40.7249 9.55579C40.6433 9.58636 40.5516 9.61694 40.4803 9.65771C40.3987 9.69855 40.3273 9.73926 40.256 9.79022C40.1846 9.82086 40.1133 9.86157 40.0522 9.93292C40.0318 9.93292 40.0012 9.95337 39.9808 9.98389C39.8993 10.0349 39.8279 10.1062 39.7566 10.1877C39.6852 10.2591 39.6342 10.3305 39.5833 10.4019C39.5323 10.4732 39.4813 10.5445 39.461 10.626C39.4202 10.677 39.3896 10.7382 39.3794 10.7892C39.3387 10.8809 39.3081 10.9727 39.2979 11.0643C39.2775 11.1663 39.2673 11.258 39.2673 11.36C39.2673 11.4822 39.2775 11.5944 39.3081 11.7065C39.3081 11.7269 39.3183 11.7473 39.3183 11.7574C39.3387 11.839 39.3692 11.9205 39.3998 11.9919C39.4508 12.1142 39.5119 12.2263 39.5935 12.3282C39.6547 12.4302 39.7361 12.5219 39.8279 12.6035C39.8279 12.6136 39.8279 12.6136 39.8279 12.6136H39.8381V12.6238C39.8381 12.634 39.8381 12.634 39.8381 12.634H39.8483C39.8483 12.6442 39.8483 12.6544 39.8585 12.6646C39.8993 12.7666 39.9502 12.8481 40.0114 12.9398C40.1133 13.0927 40.2357 13.2354 40.3783 13.3679C40.256 13.3373 40.1337 13.3068 40.0114 13.2558C39.7668 13.1641 39.5629 13.0519 39.3692 12.9194C39.3692 12.9194 39.359 12.9194 39.359 12.9092C38.8698 12.5423 38.5742 12.0327 38.5742 11.4619C38.5742 10.7892 38.9921 10.1877 39.6342 9.83105C39.6547 9.82086 39.6547 9.82086 39.6547 9.81061C40.0114 9.63739 40.4191 9.50488 40.8676 9.47424Z" fill="black"/>
<path d="M58.0219 29.8906C57.023 30.1147 56.0038 30.0333 54.9845 29.6051C54.5768 29.4217 54.322 29.0547 54.322 28.6572V16.4462C54.322 15.6614 54.4341 14.795 54.2098 14.0407C54.1793 13.949 54.1181 13.8572 54.0468 13.7859C53.9856 13.7248 53.9142 13.684 53.8429 13.6432C53.3027 13.3578 52.5484 13.4495 51.947 13.4495H43.752C43.7826 13.4189 43.8233 13.3884 43.8539 13.3578H52.6401C53.2415 13.3578 54.006 13.2559 54.5462 13.5413C54.6176 13.582 54.6889 13.633 54.7399 13.684C54.8214 13.7553 54.8724 13.847 54.9029 13.9388C55.1374 14.6931 55.0151 15.5696 55.0151 16.3442V28.5553C55.0151 28.9528 55.28 29.33 55.6878 29.5032C56.4624 29.8396 57.2473 29.9619 58.0219 29.8906Z" fill="black"/>
<path d="M40.0117 10.2592V10.0961H40.134" stroke="black" stroke-width="0.75" stroke-miterlimit="10" stroke-linecap="round" stroke-linejoin="round"/>
<path d="M43.7525 13.4495V14.1935V20.4724C43.7525 20.6558 43.7219 20.8291 43.6607 20.9922C43.4467 21.6241 42.8453 22.0726 42.142 22.0726H41.612C41.0208 22.0726 40.5112 21.7567 40.236 21.2776C40.0933 21.0432 40.0117 20.7679 40.0117 20.4724V12.9398" stroke="black" stroke-width="0.75" stroke-miterlimit="10" stroke-linecap="round" stroke-linejoin="round"/>
<path d="M39.8486 12.6341H39.8384C39.8384 12.6341 39.8384 12.6341 39.8384 12.6239V12.6137H39.8282C39.8282 12.6137 39.8282 12.6137 39.8282 12.6035C39.7365 12.522 39.6549 12.4302 39.5938 12.3283C39.5122 12.2264 39.451 12.1143 39.4001 11.9919C39.3695 11.9206 39.3389 11.8391 39.3185 11.7575C39.3185 11.7473 39.3083 11.7269 39.3083 11.7065C39.2778 11.5944 39.2676 11.4823 39.2676 11.36C39.2676 11.2581 39.2778 11.1663 39.2982 11.0644C39.3083 10.9727 39.3389 10.881 39.3797 10.7892C39.3899 10.7383 39.4205 10.6771 39.4612 10.6262C39.4816 10.5446 39.5326 10.4733 39.5836 10.4019C39.6345 10.3204 39.6957 10.249 39.7568 10.1879C39.8282 10.1063 39.8995 10.035 39.9811 9.98401C40.0015 9.95343 40.032 9.93304 40.0524 9.93304C40.1136 9.86169 40.1849 9.82092 40.2563 9.79034C40.3276 9.73938 40.399 9.69861 40.4805 9.65784C40.5519 9.61707 40.6436 9.58649 40.7252 9.55591C40.7354 9.55591 40.7455 9.54572 40.7557 9.54572C40.7659 9.53552 40.7761 9.53552 40.7761 9.53552H40.7863" stroke="black" stroke-width="0.75" stroke-miterlimit="10" stroke-linecap="round" stroke-linejoin="round"/>
<path d="M43.1094 9.36218C43.3234 9.36218 43.5477 9.36218 43.7719 9.36218C45.3008 9.36218 46.8298 9.36218 48.3587 9.36218C50.0915 9.36218 51.8141 9.36218 53.5468 9.36218C54.2909 9.36218 55.035 9.36218 55.7791 9.36218" stroke="black" stroke-width="0.75" stroke-miterlimit="10" stroke-linecap="round" stroke-linejoin="round"/>
<path d="M43.8535 13.3578C44.5161 13.3578 45.1888 13.3578 45.8513 13.3578C48.1141 13.3578 50.3769 13.3578 52.6397 13.3578C53.2411 13.3578 54.0056 13.2559 54.5458 13.5413C54.6171 13.582 54.6885 13.633 54.7394 13.684C54.821 13.7553 54.8719 13.847 54.9025 13.9388C55.137 14.6931 55.0146 15.5696 55.0146 16.3443C55.0146 17.3126 55.0146 18.2707 55.0146 19.2391C55.0146 21.2878 55.0146 23.3264 55.0146 25.3751C55.0146 26.4352 55.0146 27.485 55.0146 28.5553C55.0146 28.9528 55.2797 29.33 55.6874 29.5032C56.462 29.8396 57.2469 29.9619 58.0215 29.8906C58.5822 29.8498 59.1428 29.7173 59.6932 29.493C60.1111 29.3198 60.3761 28.9426 60.3761 28.5349V18.5561V14.8256" stroke="black" stroke-width="0.75" stroke-miterlimit="10" stroke-linecap="round" stroke-linejoin="round"/>
<path d="M54.437 12.1061C54.437 14.0372 56.025 15.6012 58.0039 15.6331C57.7565 15.681 57.4932 15.713 57.2219 15.713C55.1791 15.713 53.5273 14.0691 53.5273 12.0422C53.5273 10.0075 55.1791 8.36377 57.2219 8.36377C57.6927 8.36377 58.1476 8.45142 58.5625 8.61908C58.4029 8.58722 58.2273 8.57922 58.0598 8.57922C56.0569 8.57922 54.437 10.1512 54.437 12.1061Z" fill="black"/>
<path d="M58.5617 8.61816C58.3986 8.58759 58.2253 8.57739 58.0623 8.57739C57.2061 8.57739 56.4008 8.86279 55.7791 9.36224C54.9636 10.0044 54.4336 10.993 54.4336 12.1041C54.4336 14.0407 56.0237 15.6002 58.0011 15.6308C58.0215 15.6308 58.0419 15.6308 58.0623 15.6308C58.9388 15.6308 59.7441 15.325 60.376 14.8256C61.1711 14.1732 61.6909 13.1947 61.6909 12.1041C61.6909 11.1154 61.273 10.2286 60.6003 9.58649" stroke="black" stroke-width="0.75" stroke-miterlimit="10" stroke-linecap="round" stroke-linejoin="round"/>
<path d="M57.0138 11.9777C57.0138 11.6333 57.1746 11.3048 57.442 11.0888C57.9202 10.7025 58.5275 10.6972 58.9979 11.1241C59.2355 11.3355 59.3869 11.6384 59.3869 11.9777C59.3869 12.5789 58.9298 13.0116 58.3667 13.1203C57.7431 13.2407 57.2261 12.7064 57.0215 12.1478C56.9916 12.0662 57.0138 12.0647 57.0138 11.9777Z" fill="black"/>
<path d="M39.6352 11.2377C39.6148 11.36 39.6047 11.4823 39.6047 11.6046C39.6047 11.7269 39.6148 11.8492 39.6352 11.9614C39.6556 12.0837 39.676 12.1959 39.7168 12.3079C39.7473 12.4099 39.7779 12.5118 39.8289 12.6035C39.8289 12.6137 39.8289 12.6137 39.8289 12.6137H39.8391V12.6239C39.8391 12.6341 39.8391 12.6341 39.8391 12.6341H39.8493C39.8493 12.6443 39.8493 12.6545 39.8595 12.6647C39.9002 12.7667 39.9512 12.8481 40.0124 12.9399C40.1143 13.0928 40.2366 13.2355 40.3793 13.368H40.3895C40.4201 13.3986 40.4608 13.4393 40.5016 13.47C40.5628 13.5209 40.624 13.5718 40.6953 13.6126C40.8278 13.7043 40.9705 13.7859 41.1132 13.8369C41.2864 13.9184 41.4597 13.9694 41.6534 13.9999C41.7044 14.0101 41.7553 14.0203 41.8165 14.0203C41.8981 14.0305 41.9796 14.0407 42.0713 14.0407C41.9082 14.0713 41.7247 14.1019 41.5311 14.1019C40.9603 14.1019 40.4404 13.9184 40.0124 13.6024C39.7575 13.4189 39.5435 13.1845 39.3702 12.9195C39.3702 12.9195 39.36 12.9195 39.36 12.9093C39.1154 12.522 38.9727 12.0531 38.9727 11.5537C38.9727 10.8911 39.2275 10.2796 39.6352 9.83112C39.6556 9.82092 39.6556 9.82092 39.6556 9.81067C40.1346 9.31128 40.7972 9.00549 41.5311 9.00549C41.8572 9.00549 42.1732 9.06665 42.4586 9.18896C42.3466 9.15833 42.2344 9.15833 42.1121 9.15833C42.0102 9.15833 41.9082 9.16852 41.8165 9.17877C41.7145 9.18896 41.6228 9.19916 41.5311 9.22968C41.4699 9.23987 41.4088 9.26031 41.3476 9.28064C41.2762 9.30103 41.2049 9.32147 41.1437 9.35199C41.052 9.38263 40.9705 9.42334 40.8889 9.4743H40.8686C40.838 9.49469 40.8176 9.51514 40.787 9.53546H40.7768C40.7768 9.53546 40.7666 9.53546 40.7564 9.54565C40.7361 9.55585 40.7259 9.5661 40.7157 9.57629C40.5934 9.64764 40.471 9.73932 40.3691 9.85144C40.2876 9.92279 40.206 10.0043 40.1346 10.0961C40.0939 10.1471 40.0532 10.2083 40.0124 10.2592V10.2694C39.941 10.3611 39.89 10.4631 39.8391 10.5649C39.7983 10.6465 39.7575 10.7382 39.7371 10.83C39.7168 10.8809 39.6964 10.9319 39.6862 10.9829C39.6658 11.0644 39.6454 11.1459 39.6352 11.2377Z" fill="black"/>
<path d="M39.838 12.6238C39.838 12.6238 39.838 12.6136 39.8278 12.6136C39.8278 12.6136 39.8278 12.6136 39.8278 12.6035C39.7768 12.5117 39.7462 12.4098 39.7156 12.3079C39.6749 12.1957 39.6545 12.0836 39.6341 11.9613C39.6137 11.8492 39.6035 11.7269 39.6035 11.6046C39.6035 11.4822 39.6137 11.3599 39.6341 11.2376C39.6443 11.1459 39.6647 11.0643 39.6851 10.9828C39.6953 10.9319 39.7156 10.8809 39.736 10.83C39.7564 10.7382 39.7972 10.6465 39.838 10.5649C39.8889 10.463 39.9399 10.3611 40.0112 10.2693V10.2592C40.052 10.2082 40.0928 10.147 40.1335 10.0961C40.2049 10.0043 40.2864 9.92279 40.368 9.85144C40.4699 9.73932 40.5922 9.64758 40.7145 9.57623C40.7247 9.56604 40.7247 9.55585 40.7247 9.55585C40.7349 9.55585 40.7451 9.54565 40.7553 9.54565C40.7655 9.53546 40.7757 9.53546 40.7757 9.53546H40.7859C40.8165 9.51508 40.8369 9.49469 40.8674 9.4743H40.8776H40.8878C40.9694 9.42334 41.0509 9.38257 41.1426 9.35199C41.2038 9.32141 41.2751 9.30103 41.3465 9.28064C41.4077 9.26025 41.4688 9.23987 41.53 9.22968C41.6217 9.1991 41.7134 9.1889 41.8154 9.17871C41.9071 9.16852 42.009 9.15833 42.111 9.15833C42.2333 9.15833 42.3454 9.15833 42.4575 9.1889C42.6919 9.21948 42.906 9.27045 43.1098 9.36218C43.3748 9.46411 43.6093 9.60681 43.8029 9.79028C44.3024 10.2388 44.6286 10.8809 44.6286 11.6046C44.6286 12.2875 44.333 12.9092 43.8539 13.3577C43.8233 13.3883 43.7826 13.4189 43.752 13.4495C43.3137 13.8164 42.7327 14.0406 42.111 14.0406C42.1008 14.0406 42.0804 14.0406 42.0702 14.0406C41.9785 14.0406 41.8969 14.0305 41.8154 14.0203C41.7542 14.0203 41.7032 14.0101 41.6523 13.9999C41.4586 13.9693 41.2853 13.9183 41.1121 13.8368C40.9694 13.7858 40.8267 13.7043 40.6942 13.6125C40.6228 13.5718 40.5616 13.5208 40.5005 13.4698C40.4597 13.4393 40.4189 13.3985 40.3884 13.3679H40.3782C40.2355 13.2354 40.1132 13.0927 40.0112 12.9398C39.9501 12.8481 39.8991 12.7665 39.8583 12.6646C39.8481 12.6544 39.8481 12.6442 39.838 12.634C39.838 12.634 39.838 12.634 39.838 12.6238Z" stroke="black" stroke-width="0.75" stroke-miterlimit="10" stroke-linecap="round" stroke-linejoin="round"/>
<path d="M41.2755 11.3793C41.2755 11.1177 41.3977 10.8682 41.6007 10.7042C41.9638 10.4109 42.425 10.4068 42.7822 10.731C42.9626 10.8915 43.0776 11.1215 43.0776 11.3792C43.0776 11.8357 42.7305 12.1642 42.3029 12.2468C41.8293 12.3383 41.4368 11.9326 41.2814 11.5084C41.2587 11.4464 41.2755 11.4452 41.2755 11.3793Z" fill="black"/>
<path d="M51.0101 30.1046C50.5717 31.3277 49.0123 32.4795 46.6271 33.4478C46.6169 33.4581 46.5966 33.4581 46.5864 33.4683C42.5602 35.0991 36.2305 36.2305 29.1057 36.3528C16.8743 36.577 6.92616 33.8046 6.87514 30.1657C6.85478 28.4228 9.08702 26.8021 12.7768 25.5586C10.1776 26.5575 8.65889 27.75 8.67928 29.0241C8.73024 32.2145 18.4746 34.6404 30.4511 34.4467C37.4332 34.3346 43.6304 33.3459 47.5751 31.9189C47.5853 31.9087 47.6057 31.9087 47.6159 31.8985C49.0938 31.3583 50.2456 30.7569 51.0101 30.1046Z" fill="black"/>
</svg>
