<svg width="65" height="54" viewBox="0 0 65 54" fill="none" xmlns="http://www.w3.org/2000/svg">
<path d="M64.375 50.5102V51.7331C64.375 52.0208 64.1592 52.2572 63.892 52.288L36.3005 52.0106C35.8791 52.0106 35.4578 52.1236 35.1084 52.3496C33.5259 53.3978 31.3885 53.48 29.8265 52.4011C29.4668 52.1441 29.0249 52.0106 28.5728 52.0106H0.899094C0.87851 52.0106 0.858002 52.0106 0.837433 52.0003C0.611328 51.9489 0.436645 51.7639 0.385284 51.5378C0.375 51.5172 0.375 51.4865 0.375 51.4659V50.315L0.714127 49.7704C0.960739 49.9656 1.22794 50.1506 1.51564 50.315C4.18747 51.8975 8.53427 52.0003 14.9261 50.315C15.183 50.2533 15.4399 50.1814 15.707 50.1094C23.1572 47.0677 28.0487 46.7389 29.4462 50.1094C31.3987 48.9277 33.3512 48.9277 35.3037 50.1094C34.9543 49.8937 36.8657 48.3214 37.0609 48.2289C38.0475 47.7459 39.1881 47.6637 40.2568 47.7151C41.7879 47.787 43.2883 48.1467 44.7475 48.5783C45.6415 48.8352 46.515 49.1435 47.3885 49.462C48.3441 49.8114 49.3204 50.1403 50.3069 50.4178C52.7424 51.1062 55.2703 51.5275 57.7776 51.5378C59.5246 51.5481 61.3846 51.3118 62.9569 50.4999C63.3062 50.3047 63.6557 50.0889 63.9742 49.8422L64.375 50.5102Z" stroke="black" stroke-width="0.75" stroke-miterlimit="10" stroke-linecap="round" stroke-linejoin="round"/>
<path d="M64.375 50.5103V52.2881H63.892L36.3005 52.0107C35.8791 52.0107 35.4578 52.1237 35.1084 52.3497C33.5259 53.3979 31.3885 53.4801 29.8265 52.4012C29.4668 52.1442 29.0249 52.0107 28.5728 52.0107H0.899094C0.87851 52.0107 0.858002 52.0107 0.837433 52.0004C0.601105 51.9798 0.405853 51.7845 0.385284 51.5379C0.375 51.5173 0.375 51.4865 0.375 51.466V50.3151H1.51564C4.18747 51.8976 8.53427 52.0004 14.9261 50.3151H28.9324C29.1996 50.3151 29.4668 50.387 29.7134 50.5C31.3062 51.2194 33.1457 51.1886 35.2215 50.4281C35.4167 50.3561 35.6325 50.3151 35.8483 50.3151L50.3069 50.4178C52.7424 51.1063 55.2703 51.5276 57.7776 51.5379C59.5246 51.5482 61.3846 51.3119 62.9569 50.5L64.375 50.5103Z" fill="black"/>
<path d="M32.3748 31.4275L32.3645 32.7531L32.2617 48.9894" stroke="black" stroke-width="0.75" stroke-miterlimit="10" stroke-linecap="round" stroke-linejoin="round"/>
<path d="M62.9569 50.5C63.3062 50.3048 63.6556 50.089 63.9742 49.8424C64.0975 49.7396 64.2208 49.6368 64.3339 49.5341C64.3441 49.5238 64.3647 49.5032 64.375 49.493L55.0339 33.2566L52.1772 30.441C49.9883 31.6741 47.5118 31.1294 45.3743 30.184C43.1855 29.2284 40.8837 28.3343 38.479 28.324C36.0847 28.3138 33.5465 29.3517 32.375 31.4275C31.2035 29.3517 28.6653 28.3138 26.2709 28.324C23.8766 28.3343 21.5747 29.2284 19.3756 30.184C17.2382 31.1294 14.7616 31.6741 12.5728 30.441L9.71603 33.2566L0.375 49.493C0.488037 49.5957 0.601074 49.6882 0.714111 49.7704C0.960739 49.9657 1.22792 50.1506 1.51566 50.315C4.18745 51.8976 8.53427 52.0003 14.9261 50.315C15.183 50.2534 15.4399 50.1815 15.707 50.1095C23.1573 47.0678 28.0487 46.7389 29.4463 50.1095C31.3987 48.9278 33.3512 48.9278 35.3037 50.1095C34.9543 49.8937 36.8657 48.3215 37.0609 48.229C38.0474 47.746 39.1881 47.6638 40.2568 47.7152C41.7879 47.7871 43.2883 48.1468 44.7475 48.5784C45.6415 48.8353 46.515 49.1436 47.3885 49.4621C48.3441 49.8115 49.3204 50.1404 50.3069 50.4178C52.7423 51.1063 55.2703 51.5276 57.7777 51.5379C59.5246 51.5482 61.3846 51.3118 62.9569 50.5Z" stroke="black" stroke-width="0.75" stroke-miterlimit="10" stroke-linecap="round" stroke-linejoin="round"/>
<path d="M52.1777 30.4409L53.2978 32.7633H53.3081L55.0242 36.3189" stroke="black" stroke-width="0.75" stroke-miterlimit="10" stroke-linecap="round" stroke-linejoin="round"/>
<path d="M51.3887 44.6107C54.7794 45.7915 57.4291 46.6934 59.395 45.3644L57.4304 41.3036" stroke="black" stroke-width="0.75" stroke-miterlimit="10" stroke-linecap="round" stroke-linejoin="round"/>
<path d="M6.72621 42.2174L5.08203 45.5161C8.29848 47.6843 13.3235 43.913 20.4243 42.6798C24.3807 41.9913 28.2959 43.6355 30.8136 46.78C31.3787 47.4891 31.8925 48.157 32.2625 48.9894C32.838 47.2938 34.2458 45.7627 35.6228 44.6734C37.1437 43.4814 38.9523 42.6901 40.8636 42.4537C41.9221 42.3099 43.0011 42.351 44.0595 42.5257C45.118 42.7107 46.1353 42.9573 47.1013 43.2245" stroke="black" stroke-width="0.75" stroke-miterlimit="10" stroke-linecap="round" stroke-linejoin="round"/>
<path d="M12.5769 30.441L8.57812 38.486" stroke="black" stroke-width="0.75" stroke-miterlimit="10" stroke-linecap="round" stroke-linejoin="round"/>
<path d="M0.375 49.493L1.43344 48.599L5.08148 45.5161" stroke="black" stroke-width="0.75" stroke-miterlimit="10" stroke-linecap="round" stroke-linejoin="round"/>
<path d="M59.3906 45.3619L63.1414 48.4653L63.1517 48.4756L64.3746 49.493" stroke="black" stroke-width="0.75" stroke-miterlimit="10" stroke-linecap="round" stroke-linejoin="round"/>
<path d="M34.3217 49.2087C34.8409 49.4479 35.3706 49.9336 35.2487 50.492C35.181 50.8019 34.9264 51.0341 34.6661 51.2154C33.8511 51.783 32.8371 52.0408 31.8493 51.9773C31.1159 51.9302 29.547 51.6351 29.3913 50.7304C29.2296 49.7908 30.693 49.1977 31.3921 49.0033C32.3534 48.736 33.4113 48.7894 34.3217 49.2087Z" fill="black"/>
<path d="M3.09375 47.0784C4.93446 48.1592 7.17929 48.5321 9.2706 48.1044" stroke="black" stroke-width="0.75" stroke-miterlimit="10" stroke-linecap="round" stroke-linejoin="round"/>
<path d="M57.4297 49.7979C59.2441 49.9879 61.1283 49.3676 62.475 48.137" stroke="black" stroke-width="0.75" stroke-miterlimit="10" stroke-linecap="round" stroke-linejoin="round"/>
<path d="M42.957 25.2527C43.3954 23.7541 44.8429 22.7806 46.2902 22.1948C47.7375 21.6089 49.3048 21.2683 50.6071 20.4068C52.8775 18.9049 53.9456 15.8077 53.0838 13.2256" stroke="black" stroke-width="0.75" stroke-miterlimit="10" stroke-linecap="round" stroke-linejoin="round"/>
<path d="M17.5312 17.5779C17.5984 19.2055 18.6582 20.752 20.152 21.402C22.019 22.2144 24.2076 21.8783 26.099 22.6518C27.7322 23.3197 29.2141 24.7105 29.3853 26.4667" stroke="black" stroke-width="0.75" stroke-miterlimit="10" stroke-linecap="round" stroke-linejoin="round"/>
<path d="M33.3186 21.4199C32.988 20.7142 32.7313 19.8966 32.8207 19.2036C32.9032 18.5637 33.2687 17.9087 33.766 17.4757C34.4124 16.9129 35.2877 16.7001 36.0964 16.9112C36.1219 16.9178 36.1472 16.9248 36.1723 16.9322C36.7838 17.1881 37.2446 17.5153 37.7053 18.0097" stroke="black" stroke-width="0.75" stroke-miterlimit="10" stroke-linecap="round" stroke-linejoin="round"/>
<path d="M37.7913 18.648C38.2826 17.7493 39.154 17.1822 40.1217 17.075C41.6355 16.9072 42.8818 18.1451 42.9559 19.5187C43.0166 20.6436 42.1021 21.601 41.3483 22.4731C40.6886 23.2363 39.9531 23.9457 39.1558 24.5935C38.6463 25.0074 37.7851 25.8595 37.0064 25.7742C36.2424 25.6905 35.4806 24.738 35.0645 24.2248" stroke="black" stroke-width="0.75" stroke-miterlimit="10" stroke-linecap="round" stroke-linejoin="round"/>
<path d="M39.7143 8.69153C39.7073 9.67908 39.7003 10.6666 39.6934 11.6542" stroke="black" stroke-width="0.75" stroke-miterlimit="10" stroke-linecap="round" stroke-linejoin="round"/>
<path d="M43.3627 8.71252C42.7989 9.92957 42.1577 11.1094 41.4453 12.2406" stroke="black" stroke-width="0.75" stroke-miterlimit="10" stroke-linecap="round" stroke-linejoin="round"/>
<path d="M45.9832 11.5935C45.0175 12.1577 43.968 12.7585 42.834 13.42" stroke="black" stroke-width="0.75" stroke-miterlimit="10" stroke-linecap="round" stroke-linejoin="round"/>
<path d="M27.8635 16.5064C27.5758 16.8661 27.2367 17.1435 26.8462 17.2771C25.572 17.7087 23.64 16.7016 22.5815 16.157C21.1943 15.4479 19.9201 14.5333 18.6766 13.629C17.3202 12.6323 15.676 11.1216 15.1519 9.50827C14.782 8.38821 14.8539 7.02145 15.2958 5.93219C15.8815 4.51407 17.0941 3.49673 18.5327 3.23984C18.5842 3.23984 18.6253 3.22955 18.6663 3.21927C18.8411 3.19876 19.026 3.18848 19.2213 3.18848C18.1834 3.54813 17.2894 4.29831 16.7344 5.29507C16.1795 6.30212 15.974 7.59692 16.2206 8.69647C16.57 10.2688 18.0498 11.8307 19.2932 12.8789C20.4339 13.8346 21.6054 14.8005 22.9104 15.5815C23.8969 16.1673 25.7158 17.2668 27.0209 16.9483C27.3291 16.8763 27.6066 16.7119 27.8635 16.5064Z" fill="black"/>
<path d="M23.5061 3.80505C22.4579 3.27069 21.5022 3.01379 20.3513 2.9624C20.2999 2.9624 20.2588 2.97269 20.2074 2.97269C19.8683 3.00351 19.5395 3.07544 19.2209 3.18848C18.183 3.54816 17.289 4.29831 16.7341 5.2951C16.1792 6.30215 15.9736 7.59695 16.2203 8.6965C16.5697 10.2688 18.0494 11.8307 19.2928 12.8789C20.4335 13.8346 21.605 14.8005 22.91 15.5815C23.8966 16.1673 25.7155 17.2668 27.0205 16.9483C27.3288 16.8763 27.6063 16.7119 27.8632 16.5064C28.7469 15.7973 29.384 14.482 29.8362 13.7216C30.3592 12.8459 30.8386 11.9434 31.2704 11.0236" stroke="black" stroke-width="0.75" stroke-miterlimit="10" stroke-linecap="round" stroke-linejoin="round"/>
<path d="M32.8029 7.19519C33.2696 5.81263 33.5598 4.39408 33.0126 3.12687C32.0672 0.927769 29.2824 -0.356776 26.9086 0.824986C25.5419 1.51349 24.5245 2.74665 24.1443 4.27778C24.0929 4.45249 24.0621 4.62717 24.0312 4.80188" stroke="black" stroke-width="0.75" stroke-miterlimit="10" stroke-linecap="round" stroke-linejoin="round"/>
</svg>
