<svg xmlns="http://www.w3.org/2000/svg" width="890" height="420" viewBox="0 0 890 420" fill="none">
  <g stroke="#c8734a" stroke-width="1.5" opacity="0.75" stroke-linecap="round" stroke-linejoin="round">
    <path d="M20 372 H870" opacity="0.5"/>
    <path d="M300 372 V214 H590 V372"/>
    <path d="M300 214 L445 150 L590 214"/>
    <path d="M420 372 V300 H470 V372"/>
    <rect x="330" y="250" width="34" height="34"/>
    <rect x="526" y="250" width="34" height="34"/>
    <path d="M110 372 V286 H300"/>
    <path d="M110 286 L150 258 H300"/>
    <path d="M590 372 V286 H788 V372"/>
    <path d="M590 286 L636 258 H788"/>
    <circle cx="70" cy="330" r="26"/>
    <path d="M70 356 V386"/>
    <circle cx="828" cy="326" r="30"/>
    <path d="M828 356 V386"/>
    <path d="M360 372 q12 -22 24 0" opacity="0.6"/>
    <path d="M506 372 q12 -22 24 0" opacity="0.6"/>
  </g>
  <text x="445" y="405" text-anchor="middle" font-family="sans-serif" font-size="12" fill="#c8734a" opacity="0.5">venue illustration placeholder</text>
</svg>
